<?xml version="1.0" encoding="UTF-8" ?>
<!DOCTYPE svg PUBLIC "-//W3C//DTD SVG 1.1//EN" "http://www.w3.org/Graphics/SVG/1.1/DTD/svg11.dtd">
<svg width="2079pt" height="599pt" viewBox="0 0 2079 599" version="1.1" xmlns="http://www.w3.org/2000/svg">
<path fill="#131314" opacity="1.00" d=" M 708.37 0.00 L 709.63 0.00 C 712.89 10.98 716.54 21.85 719.39 32.95 C 721.00 32.80 722.63 32.63 724.21 32.21 C 736.11 28.94 747.93 25.42 759.87 22.31 C 768.44 53.21 780.60 82.97 789.84 113.65 C 734.81 130.59 679.41 146.26 624.12 162.32 C 633.58 175.23 644.13 187.30 654.33 199.63 C 678.12 227.82 702.71 255.33 726.64 283.40 C 735.88 293.37 740.73 306.63 743.07 319.84 C 745.94 338.80 743.07 358.60 734.90 375.95 C 729.58 387.18 721.88 397.42 711.91 404.91 C 701.93 412.53 689.60 417.05 677.06 417.61 C 620.04 417.75 563.02 417.95 506.00 417.83 C 475.36 417.91 444.71 417.44 414.08 417.85 C 405.40 451.10 391.26 483.12 370.85 510.85 C 358.90 527.02 344.83 541.67 328.76 553.77 C 305.04 571.59 277.74 584.02 249.87 593.83 C 245.38 595.46 240.60 596.43 236.51 599.00 L 235.59 599.00 C 234.24 594.14 231.97 589.62 230.03 584.98 C 220.83 563.43 211.71 541.84 202.84 520.14 C 198.26 508.62 193.19 497.27 189.05 485.58 C 214.25 481.71 237.10 467.78 254.54 449.53 C 268.21 435.32 278.30 418.06 286.03 400.02 C 297.96 371.41 301.60 340.07 301.25 309.29 C 386.50 309.46 471.75 309.35 557.00 309.36 C 574.17 309.21 591.36 309.65 608.52 309.13 C 606.40 305.49 603.32 302.59 600.62 299.42 C 564.30 257.91 526.35 217.71 492.81 173.85 C 502.23 145.02 515.76 117.76 526.43 89.39 C 538.84 84.74 552.63 83.80 564.14 76.79 C 562.71 65.60 558.57 54.97 556.00 44.02 C 588.65 34.53 621.48 25.64 654.13 16.13 C 672.21 10.77 690.47 5.93 708.37 0.00 Z" />
<path fill="#131314" opacity="1.00" d=" M 161.95 145.90 C 162.88 145.52 164.49 144.27 165.09 145.79 C 180.84 173.54 196.19 201.54 211.48 229.55 C 217.96 241.57 224.96 253.36 229.89 266.13 C 241.73 295.73 245.97 329.22 237.20 360.22 C 233.33 374.95 224.87 388.44 213.08 398.11 C 197.79 410.84 177.93 417.87 158.04 417.73 C 105.36 417.49 52.67 418.60 0.00 417.22 L 0.00 310.09 C 30.97 308.03 62.07 310.62 93.05 308.71 C 99.10 308.55 104.80 305.04 107.83 299.84 C 111.64 293.58 112.00 285.57 109.21 278.85 C 98.57 251.20 80.42 227.27 69.18 199.90 C 68.77 198.79 68.46 197.64 68.14 196.51 C 98.78 178.48 130.99 163.35 161.95 145.90 Z" />
<path fill="#131314" opacity="1.00" d=" M 973.56 194.50 C 1003.83 176.08 1041.47 171.08 1075.80 179.24 C 1083.05 181.16 1090.47 182.58 1097.43 185.50 C 1121.75 194.97 1141.82 213.47 1155.66 235.36 C 1163.82 248.62 1170.45 262.86 1175.37 277.64 C 1183.14 301.96 1186.04 327.57 1186.95 352.99 C 1188.13 374.28 1187.29 395.62 1187.73 416.94 C 1177.55 417.87 1167.27 417.15 1157.05 417.51 C 1086.93 418.53 1016.79 417.40 946.66 417.76 C 946.64 467.48 946.64 517.22 946.73 566.95 C 916.53 568.19 886.24 567.46 856.00 567.62 C 845.35 567.31 834.68 567.54 824.04 567.20 C 823.98 483.08 824.01 398.96 824.02 314.84 C 851.23 314.24 878.45 314.70 905.67 314.79 C 908.42 281.77 920.56 249.31 941.30 223.35 C 950.33 212.02 961.05 201.91 973.56 194.50 M 1026.59 277.59 C 1014.72 285.53 1008.16 300.04 1008.18 314.11 C 1013.09 314.76 1018.06 314.25 1023.01 314.41 C 1042.77 314.34 1062.56 314.76 1082.32 314.05 C 1080.58 305.37 1077.05 297.04 1072.56 289.42 C 1067.19 280.45 1057.89 272.87 1047.00 272.92 C 1039.90 272.22 1032.55 273.53 1026.59 277.59 Z" />
<path fill="#131314" opacity="1.00" d=" M 1276.82 201.84 C 1310.56 181.61 1354.00 180.59 1389.74 196.22 C 1414.80 206.92 1435.60 226.79 1447.91 251.05 C 1457.34 269.44 1462.63 289.55 1467.64 309.49 C 1511.08 309.85 1554.54 309.53 1597.99 309.66 C 1710.01 309.70 1822.04 309.96 1934.05 309.00 C 1946.76 309.39 1957.76 298.33 1959.04 286.00 C 1960.40 273.23 1959.93 260.35 1960.52 247.53 C 1999.50 247.26 2038.48 247.27 2077.47 247.53 C 2078.47 267.99 2077.80 288.51 2077.97 308.99 C 2078.13 315.52 2077.46 322.15 2079.00 328.57 L 2079.00 335.40 C 2077.38 343.17 2076.38 351.13 2073.51 358.58 C 2060.30 393.72 2023.89 419.63 1986.00 418.01 C 1921.67 417.61 1857.33 417.71 1793.00 417.63 C 1681.32 417.57 1569.64 417.58 1457.96 417.72 C 1456.31 417.77 1454.13 417.68 1453.63 419.67 C 1432.98 461.74 1401.41 497.85 1364.72 526.74 C 1353.07 535.73 1341.21 544.63 1328.35 551.82 C 1305.40 525.58 1283.12 498.77 1260.97 471.86 C 1274.96 465.42 1288.78 458.41 1301.17 449.18 C 1312.73 440.48 1323.76 430.48 1331.41 418.10 C 1299.27 417.75 1267.11 417.46 1234.97 418.08 C 1233.13 418.00 1231.21 418.24 1229.50 417.54 C 1215.43 394.00 1210.17 366.16 1210.00 339.00 C 1210.00 326.71 1210.18 314.34 1212.44 302.22 C 1214.47 291.42 1217.57 280.82 1221.51 270.56 C 1232.20 242.70 1251.03 217.37 1276.82 201.84 M 1311.29 284.28 C 1302.48 289.36 1296.49 298.94 1295.91 309.11 C 1311.93 309.58 1327.96 309.27 1343.99 309.37 C 1353.30 309.15 1362.66 309.73 1371.95 308.95 C 1370.92 300.49 1366.54 292.44 1359.77 287.22 C 1346.20 276.63 1326.08 275.69 1311.29 284.28 Z" />
<path fill="#131314" opacity="1.00" d=" M 1957.32 454.35 C 1989.48 450.62 2022.18 475.02 2027.61 506.99 C 2028.84 517.77 2029.08 529.01 2025.37 539.37 C 2015.87 565.82 1988.08 584.51 1959.98 583.07 C 1949.19 582.60 1939.13 578.19 1929.67 573.33 C 1900.87 556.61 1891.05 515.37 1907.86 486.93 C 1917.92 468.95 1936.99 456.88 1957.32 454.35 Z" />
</svg>
