<?xml version="1.0" encoding="UTF-8" ?>
<!DOCTYPE svg PUBLIC "-//W3C//DTD SVG 1.1//EN" "http://www.w3.org/Graphics/SVG/1.1/DTD/svg11.dtd">
<svg width="1165pt" height="1154pt" viewBox="0 0 1165 1154" version="1.1" xmlns="http://www.w3.org/2000/svg">
<g id="#ffffffff">
<path fill="#ffffff" opacity="1.00" d=" M 256.42 25.45 C 283.15 9.70 313.93 0.62 345.00 0.27 C 353.70 0.30 362.42 0.24 371.06 1.42 C 386.98 3.29 402.35 7.99 417.81 12.00 C 443.68 18.81 469.58 25.53 495.43 32.45 C 497.80 33.10 500.21 33.68 502.51 34.58 C 498.60 35.55 494.62 36.16 490.65 36.77 C 382.12 53.58 279.17 103.99 199.07 179.09 C 180.83 196.05 164.15 214.57 147.89 233.41 C 153.83 208.89 160.87 184.66 167.25 160.26 C 172.19 142.56 175.96 124.41 183.50 107.56 C 198.33 73.40 224.34 44.31 256.42 25.45 Z" />
<path fill="#ffffff" opacity="1.00" d=" M 571.39 76.45 C 656.73 74.50 742.46 94.96 817.73 135.22 C 878.76 167.71 932.89 213.06 975.60 267.44 C 1031.65 338.50 1067.76 425.07 1078.83 514.90 C 1090.17 604.79 1076.38 697.66 1039.42 780.38 C 1007.85 851.46 959.40 914.97 899.15 964.17 C 834.38 1017.31 756.03 1053.69 673.64 1068.91 C 583.39 1085.83 488.54 1077.13 402.86 1044.12 C 352.36 1024.77 305.04 997.13 263.36 962.67 C 206.24 915.54 159.81 855.54 128.58 788.39 C 91.77 709.75 76.04 621.41 83.43 534.90 C 88.75 471.14 106.48 408.44 135.34 351.34 C 169.49 283.53 219.34 223.71 279.89 177.91 C 337.11 134.50 403.78 103.65 473.91 88.17 C 505.91 81.08 538.62 77.14 571.39 76.45 M 416.43 222.71 C 392.74 225.59 369.80 234.48 350.41 248.41 C 327.82 264.50 310.13 287.34 300.18 313.23 C 289.08 341.75 287.54 373.87 295.83 403.34 C 305.35 437.87 328.41 468.40 359.03 486.98 C 390.95 506.67 430.76 512.94 467.19 504.04 C 500.83 496.07 531.24 475.37 550.98 446.99 C 571.03 418.57 580.09 382.67 575.92 348.13 C 572.04 314.15 555.43 281.84 530.05 258.92 C 499.81 231.12 457.19 217.53 416.43 222.71 M 785.44 285.56 C 755.97 287.38 727.18 298.61 704.30 317.27 C 677.91 338.55 659.57 369.50 653.63 402.88 C 647.27 437.22 654.15 473.76 672.54 503.44 C 690.84 533.41 720.58 556.13 754.32 565.86 C 787.85 575.80 824.98 572.75 856.46 557.51 C 886.70 543.10 911.50 517.68 925.11 487.07 C 938.00 458.57 941.09 425.79 933.80 395.38 C 926.54 364.40 908.53 336.11 883.58 316.37 C 856.17 294.43 820.47 283.22 785.44 285.56 M 574.46 513.79 C 563.24 515.17 552.42 519.59 543.47 526.49 C 531.95 535.26 523.66 548.13 520.37 562.22 C 516.97 576.38 518.69 591.70 525.14 604.75 C 531.68 618.22 543.17 629.19 556.94 635.10 C 571.50 641.48 588.48 642.05 603.44 636.66 C 618.58 631.36 631.49 620.04 638.72 605.71 C 646.08 591.43 647.69 574.32 643.09 558.93 C 639.14 545.36 630.50 533.23 618.96 525.07 C 606.21 515.95 590.01 511.84 574.46 513.79 M 354.34 583.31 C 329.96 585.97 306.32 595.07 286.44 609.44 C 260.63 627.90 241.37 655.25 232.60 685.75 C 222.98 718.55 225.73 754.77 240.19 785.74 C 253.96 815.72 278.48 840.58 308.29 854.73 C 342.33 871.21 382.98 873.28 418.53 860.34 C 449.91 849.16 477.05 826.60 493.76 797.78 C 512.10 766.64 517.88 728.41 509.58 693.24 C 501.86 659.48 481.34 628.86 453.04 608.89 C 424.75 588.66 388.91 579.34 354.34 583.31 M 716.44 646.77 C 682.34 650.13 649.69 666.27 626.37 691.38 C 601.75 717.47 587.63 753.13 587.72 789.00 C 587.55 822.78 599.92 856.42 621.91 882.07 C 640.98 904.58 667.24 920.87 695.86 928.03 C 722.89 934.91 751.93 933.60 778.23 924.33 C 808.19 913.92 834.41 893.18 851.45 866.43 C 872.93 833.22 879.60 790.92 869.33 752.72 C 860.93 720.51 840.84 691.53 813.62 672.37 C 785.72 652.49 750.52 643.22 716.44 646.77 Z" />
<path fill="#ffffff" opacity="1.00" d=" M 915.00 143.08 C 949.23 151.30 983.09 161.00 1017.24 169.60 C 1035.43 174.29 1053.71 179.59 1070.20 188.82 C 1106.88 208.14 1135.87 241.09 1151.48 279.40 C 1160.96 302.32 1164.96 327.27 1164.74 351.98 C 1163.66 364.49 1162.18 377.01 1159.07 389.21 C 1154.56 406.50 1149.74 423.72 1145.22 441.01 C 1139.07 463.85 1133.25 486.79 1126.47 509.46 C 1120.85 469.24 1111.78 429.41 1097.75 391.26 C 1082.11 348.36 1061.03 307.46 1035.19 269.81 C 1002.27 221.45 961.07 179.02 915.00 143.08 Z" />
<path fill="#ffffff" opacity="1.00" d=" M 32.59 664.15 C 33.58 667.73 34.05 671.41 34.76 675.05 C 45.25 732.04 64.90 787.33 92.88 838.07 C 126.29 898.81 171.37 953.10 224.88 997.17 C 228.87 1000.49 233.13 1003.51 236.70 1007.31 C 210.68 1001.05 184.89 993.83 158.98 987.12 C 143.67 982.94 128.05 979.69 113.29 973.72 C 81.18 961.21 52.94 939.10 33.03 910.98 C 13.08 883.20 1.55 849.59 0.00 815.44 L 0.00 803.49 C 0.14 776.43 9.24 750.71 15.89 724.81 C 21.51 704.61 26.19 684.13 32.59 664.15 Z" />
<path fill="#ffffff" opacity="1.00" d=" M 1003.65 925.62 C 1009.49 918.80 1014.98 911.70 1020.71 904.78 C 1014.67 928.50 1008.16 952.09 1001.84 975.73 C 997.30 992.32 993.14 1009.01 988.37 1025.53 C 978.91 1057.89 959.78 1087.26 934.27 1109.27 C 905.91 1133.90 869.72 1149.41 832.28 1152.72 C 809.86 1155.38 787.12 1152.34 765.39 1146.67 C 744.76 1141.19 724.13 1135.69 703.46 1130.37 C 688.75 1126.43 673.90 1122.93 659.41 1118.29 C 681.79 1114.43 704.11 1110.04 726.02 1104.03 C 800.05 1083.73 869.73 1047.76 929.17 999.20 C 956.29 977.14 981.17 952.38 1003.65 925.62 Z" />
</g>
</svg>
