<?xml version="1.0" encoding="UTF-8" ?>
<!DOCTYPE svg PUBLIC "-//W3C//DTD SVG 1.1//EN" "http://www.w3.org/Graphics/SVG/1.1/DTD/svg11.dtd">
<svg width="192pt" height="192pt" viewBox="0 0 192 192" version="1.1" xmlns="http://www.w3.org/2000/svg">
<g id="#000000ff">
<path fill="#000000" opacity="1.00" d=" M 24.00 24.00 C 72.00 24.00 120.00 23.99 168.00 24.00 C 168.00 72.00 168.01 120.00 168.00 168.00 C 120.00 168.00 72.00 168.01 24.00 168.00 C 24.00 120.00 23.99 72.00 24.00 24.00 M 40.01 40.01 C 39.99 77.34 39.99 114.66 40.01 151.99 C 77.34 152.01 114.66 152.01 151.99 151.99 C 152.01 114.66 152.01 77.34 151.99 40.01 C 114.66 39.99 77.34 39.99 40.01 40.01 Z" />
<path fill="#000000" opacity="1.00" d=" M 52.00 52.00 C 64.67 51.99 77.33 52.00 90.00 52.00 C 90.01 64.67 90.00 77.33 90.00 90.00 C 77.33 90.01 64.66 90.00 52.00 90.00 C 51.99 77.33 52.00 64.66 52.00 52.00 Z" />
<path fill="#000000" opacity="1.00" d=" M 102.00 52.00 C 114.67 51.99 127.33 52.00 140.00 52.00 C 140.01 64.67 140.00 77.33 140.00 90.00 C 127.33 90.01 114.66 90.00 102.00 90.00 C 101.99 77.33 102.00 64.66 102.00 52.00 Z" />
<path fill="#000000" opacity="1.00" d=" M 52.00 102.00 C 64.67 101.99 77.33 102.00 90.00 102.00 C 90.01 114.67 90.00 127.33 90.00 140.00 C 77.33 140.01 64.66 140.00 52.00 140.00 C 51.99 127.33 52.00 114.66 52.00 102.00 Z" />
<path fill="#000000" opacity="1.00" d=" M 102.00 102.00 C 114.67 101.99 127.33 102.00 140.00 102.00 C 140.01 114.67 140.00 127.33 140.00 140.00 C 127.33 140.01 114.66 140.00 102.00 140.00 C 101.99 127.33 102.00 114.66 102.00 102.00 Z" />
</g>
</svg>
