<?xml version="1.0" encoding="UTF-8" ?>
<!DOCTYPE svg PUBLIC "-//W3C//DTD SVG 1.1//EN" "http://www.w3.org/Graphics/SVG/1.1/DTD/svg11.dtd">
<svg width="1503pt" height="604pt" viewBox="0 0 1503 604" version="1.1" xmlns="http://www.w3.org/2000/svg">
<g id="#000000ff">
<path fill="#000000" opacity="1.00" d=" M 252.91 0.00 L 257.33 0.00 C 266.49 0.92 275.00 5.25 281.89 11.24 C 293.83 21.51 302.76 34.72 310.74 48.17 C 326.16 74.92 338.12 103.53 348.41 132.60 C 350.42 137.53 352.57 142.43 355.29 147.01 C 355.96 148.29 357.68 148.10 358.88 148.46 C 382.16 151.60 405.32 156.14 427.71 163.33 C 444.79 168.87 461.31 175.95 477.67 183.31 C 482.11 185.22 486.54 187.46 489.88 191.04 C 496.54 197.81 499.63 207.19 500.87 216.41 C 497.88 219.59 493.88 221.54 489.62 222.31 C 475.89 224.95 461.80 223.63 448.01 222.23 C 418.14 218.69 388.35 214.52 358.47 211.02 C 351.25 189.57 343.71 168.21 334.82 147.39 C 330.11 147.11 325.42 146.66 320.74 146.11 C 329.68 166.88 337.54 188.10 344.75 209.54 C 309.31 205.63 273.66 203.09 237.99 203.61 C 213.07 204.07 188.19 205.80 163.40 208.34 C 171.08 186.82 179.27 165.46 188.76 144.67 C 184.07 145.02 179.37 145.31 174.68 145.51 C 165.35 166.56 157.21 188.10 149.62 209.83 C 120.00 213.36 90.51 217.79 60.99 222.01 C 47.73 223.83 34.31 225.61 20.91 224.45 C 13.05 224.15 4.52 221.60 0.32 214.40 C 1.59 208.05 2.41 201.01 7.07 196.09 C 10.69 192.56 15.24 190.21 19.31 187.24 C 29.40 179.89 40.88 174.70 52.59 170.50 C 84.69 159.04 118.17 151.87 151.81 146.76 C 154.40 146.69 155.33 144.07 156.09 142.03 C 163.79 120.45 172.60 99.26 182.49 78.59 C 192.74 57.71 203.97 36.94 219.63 19.56 C 228.37 9.93 239.60 1.45 252.91 0.00 M 238.36 19.30 C 227.27 27.98 218.94 39.58 211.49 51.39 C 196.38 75.99 184.75 102.52 174.17 129.33 C 172.04 134.39 169.45 139.29 168.27 144.70 C 170.57 144.49 172.87 144.26 175.18 144.02 C 177.28 137.93 181.20 132.74 183.91 126.93 C 192.04 110.60 200.77 94.42 212.01 79.98 C 218.16 71.91 225.11 64.28 233.56 58.57 C 241.39 53.39 250.98 49.98 260.45 51.73 C 272.47 53.83 282.41 61.84 290.31 70.73 C 302.48 84.19 311.49 100.08 319.88 116.06 C 324.86 125.88 329.11 136.06 334.40 145.72 C 336.63 145.94 338.86 146.15 341.10 146.36 C 334.32 130.74 328.67 114.66 321.98 99.00 C 311.67 75.68 300.74 52.25 284.76 32.18 C 278.22 24.37 270.76 16.49 260.79 13.29 C 252.84 10.74 244.58 14.45 238.36 19.30 M 234.09 74.15 C 218.78 88.28 208.65 106.81 198.85 124.92 C 195.70 130.56 192.75 136.33 190.62 142.44 C 203.40 141.94 216.16 141.00 228.96 140.93 C 258.95 140.57 288.92 142.43 318.84 144.33 C 313.61 130.79 307.09 117.79 299.66 105.33 C 293.54 95.09 286.93 84.99 278.57 76.41 C 273.20 71.21 267.11 66.30 259.82 64.19 C 250.11 62.06 240.87 67.72 234.09 74.15 M 363.42 170.54 C 357.72 172.20 354.22 178.37 354.97 184.13 C 355.52 190.44 361.81 195.63 368.14 194.82 C 373.86 194.48 379.20 189.96 379.72 184.11 C 381.33 175.48 371.62 167.44 363.42 170.54 M 133.33 175.60 C 126.62 177.53 123.03 185.56 124.95 192.05 C 126.54 197.61 132.26 201.65 138.07 201.07 C 144.23 200.94 150.00 196.14 150.56 189.86 C 152.25 180.70 142.05 172.23 133.33 175.60 Z" />
<path fill="#000000" opacity="1.00" d=" M 959.53 18.84 C 970.43 16.97 981.98 18.17 992.00 22.97 C 1007.08 30.04 1018.57 44.50 1021.61 60.93 C 1023.04 68.21 1022.65 75.67 1022.71 83.05 C 1022.73 162.36 1022.69 241.67 1022.64 320.99 C 1022.54 331.23 1023.49 341.71 1020.75 351.71 C 1016.60 367.11 1005.08 380.28 990.41 386.52 C 976.75 392.54 960.54 392.32 947.01 386.02 C 928.86 377.87 916.24 358.92 915.95 338.99 C 916.10 248.97 915.89 158.94 916.07 68.93 C 916.48 44.85 935.81 22.73 959.53 18.84 Z" />
<path fill="#000000" opacity="1.00" d=" M 1121.55 71.77 C 1135.16 69.74 1149.54 73.15 1160.65 81.30 C 1172.25 89.59 1180.30 102.72 1182.22 116.86 C 1184.68 132.74 1179.27 149.58 1168.11 161.12 C 1157.89 171.98 1142.92 178.21 1127.99 177.65 C 1112.42 177.41 1097.21 169.72 1087.59 157.51 C 1078.24 145.98 1074.52 130.40 1076.85 115.82 C 1080.05 93.48 1099.29 74.83 1121.55 71.77 Z" />
<path fill="#000000" opacity="1.00" d=" M 1260.15 80.11 C 1276.40 68.95 1298.88 68.30 1315.91 78.15 C 1332.27 87.16 1342.82 105.32 1342.98 123.95 C 1343.14 204.30 1343.03 284.66 1343.05 365.01 C 1343.20 370.14 1342.33 375.59 1344.58 380.41 C 1347.41 386.68 1354.03 391.05 1360.96 390.91 C 1390.63 391.00 1420.30 390.84 1449.98 391.00 C 1461.98 390.92 1473.90 395.25 1483.23 402.77 C 1494.96 412.11 1502.32 426.60 1503.00 441.57 L 1503.00 447.13 C 1502.14 466.07 1490.22 483.97 1473.09 492.08 C 1464.75 496.24 1455.34 497.80 1446.07 497.54 C 1412.70 497.56 1379.33 497.49 1345.96 497.48 C 1327.35 498.00 1308.65 493.54 1292.28 484.66 C 1264.63 469.85 1244.13 442.30 1238.24 411.46 C 1235.41 397.46 1236.24 383.12 1236.12 368.95 C 1236.17 287.79 1236.02 206.64 1236.19 125.49 C 1235.87 107.56 1245.05 89.86 1260.15 80.11 Z" />
<path fill="#000000" opacity="1.00" d=" M 798.47 125.57 C 813.56 122.44 829.96 126.29 842.05 135.85 C 854.84 145.77 862.63 161.78 862.52 177.96 C 862.53 231.64 862.55 285.33 862.51 339.01 C 862.37 373.95 843.32 408.00 813.99 426.86 C 797.43 437.71 777.79 443.89 757.98 444.06 C 724.99 444.07 691.99 444.13 659.00 444.07 C 652.49 443.96 645.93 444.48 639.50 443.29 C 624.63 440.78 611.15 431.44 603.38 418.55 C 596.26 406.86 593.68 392.34 596.95 378.99 C 600.29 364.66 609.75 351.83 622.61 344.62 C 630.89 339.86 640.49 337.60 650.02 337.64 C 677.01 337.55 704.00 337.62 730.99 337.60 C 736.60 337.63 742.76 338.11 747.61 334.68 C 753.29 331.22 755.97 324.47 755.80 318.01 C 755.85 275.36 755.81 232.71 755.82 190.06 C 755.90 180.52 755.10 170.68 758.33 161.51 C 763.95 143.44 779.91 129.20 798.47 125.57 Z" />
<path fill="#000000" opacity="1.00" d=" M 159.38 220.06 C 201.31 215.44 243.61 213.49 285.76 215.79 C 306.74 217.03 327.69 218.83 348.57 221.23 C 353.89 237.86 358.83 254.61 363.44 271.45 C 364.03 274.25 365.91 277.02 368.99 277.34 C 373.34 278.13 377.17 273.49 375.75 269.35 C 371.75 253.67 367.00 238.18 362.19 222.74 C 388.80 225.82 415.33 229.56 441.92 232.77 C 461.89 235.05 483.03 237.64 502.19 229.93 C 502.18 255.91 496.87 281.51 490.46 306.56 C 479.66 347.95 465.11 388.21 450.27 428.29 C 439.39 457.20 429.78 486.97 413.40 513.38 C 402.91 529.67 387.84 542.78 370.78 551.84 C 340.41 567.45 305.74 571.55 272.06 572.93 C 227.55 573.93 182.65 568.96 140.02 555.86 C 130.22 552.80 120.37 549.14 112.11 542.89 C 104.86 537.23 97.89 531.13 92.08 523.97 C 78.11 507.05 68.68 486.98 60.20 466.90 C 45.14 430.99 34.23 393.52 24.11 355.97 C 13.42 315.25 3.11 274.12 0.00 231.99 L 0.00 230.19 C 9.59 234.87 20.43 236.26 31.00 236.11 C 45.09 235.83 59.02 233.43 72.95 231.53 C 97.16 228.05 121.36 224.53 145.64 221.56 C 140.47 237.32 135.41 253.12 131.02 269.12 C 129.56 273.02 132.77 277.64 136.99 277.41 C 140.48 277.50 142.73 274.30 143.39 271.21 C 148.28 254.03 153.64 236.98 159.38 220.06 Z" />
<path fill="#000000" opacity="1.00" d=" M 1120.52 231.81 C 1132.33 229.81 1144.79 231.89 1155.26 237.73 C 1170.37 246.00 1181.04 261.95 1182.50 279.17 C 1183.21 288.42 1182.75 297.72 1182.88 307.00 C 1182.90 351.97 1182.86 396.95 1182.87 441.92 C 1182.74 452.38 1181.77 462.91 1178.87 472.99 C 1170.39 503.29 1147.80 529.26 1118.92 541.77 C 1105.43 547.70 1090.72 550.82 1075.99 550.86 C 1046.98 550.88 1017.98 550.86 988.97 550.87 C 979.67 550.65 970.31 551.44 961.08 550.11 C 945.05 547.78 930.47 537.53 922.67 523.37 C 915.66 511.00 914.22 495.80 918.18 482.22 C 922.32 468.21 932.56 456.15 945.69 449.76 C 953.49 445.81 962.30 444.21 971.00 444.14 C 1000.35 443.97 1029.70 444.20 1059.06 444.03 C 1067.95 444.04 1075.88 436.01 1075.91 427.15 C 1076.00 392.09 1075.96 357.03 1075.94 321.98 C 1076.18 307.64 1075.47 293.26 1076.45 278.95 C 1078.25 255.64 1097.54 235.41 1120.52 231.81 Z" />
<path fill="#000000" opacity="1.00" d=" M 1194.14 518.13 C 1204.79 504.26 1222.49 496.24 1239.96 497.68 C 1257.67 498.77 1274.43 509.44 1282.89 525.05 C 1291.80 540.75 1291.78 561.03 1282.81 576.70 C 1274.20 592.41 1257.26 602.98 1239.39 604.00 L 1232.85 604.00 C 1213.47 602.86 1195.29 590.38 1187.52 572.56 C 1179.49 555.03 1181.96 533.16 1194.14 518.13 Z" />
</g>
</svg>
