<?xml version="1.0" encoding="UTF-8" ?>
<!DOCTYPE svg PUBLIC "-//W3C//DTD SVG 1.1//EN" "http://www.w3.org/Graphics/SVG/1.1/DTD/svg11.dtd">
<svg width="83pt" height="83pt" viewBox="0 0 83 83" version="1.1" xmlns="http://www.w3.org/2000/svg">
<g id="#f5f5f5ff">
<path fill="#f5f5f5" opacity="1.00" d=" M 29.29 0.00 L 53.07 0.00 C 57.68 0.33 62.40 0.07 66.85 1.52 C 73.60 3.39 79.17 8.84 81.27 15.50 C 82.75 19.69 82.63 24.17 83.00 28.54 L 83.00 62.01 L 82.69 55.93 C 83.52 64.73 79.98 74.42 72.19 79.10 C 66.50 82.75 59.54 82.69 53.03 83.00 L 29.88 83.00 C 25.07 82.65 20.10 82.89 15.48 81.26 C 9.06 79.24 3.77 73.98 1.74 67.56 C 0.23 63.36 0.34 58.85 0.00 54.46 L 0.00 29.91 C 0.33 25.29 0.07 20.55 1.52 16.09 C 3.48 9.17 9.18 3.45 16.12 1.52 C 20.37 0.13 24.89 0.34 29.29 0.00 M 18.46 8.69 C 12.78 10.09 8.72 15.38 8.11 21.09 C 7.02 30.69 7.66 40.38 7.50 50.02 C 7.70 56.20 7.11 62.92 10.41 68.44 C 13.24 73.04 18.72 74.98 23.88 75.21 C 33.92 75.69 43.98 75.46 54.03 75.42 C 59.77 75.29 66.37 75.17 70.67 70.75 C 75.16 66.47 75.28 59.78 75.42 54.01 C 75.45 43.70 75.73 33.37 75.15 23.07 C 74.84 17.69 72.25 12.13 67.21 9.71 C 60.55 6.77 53.04 7.75 45.97 7.49 C 36.81 7.78 27.47 6.70 18.46 8.69 Z" />
<path fill="#f5f5f5" opacity="1.00" d=" M 60.46 15.49 C 63.31 12.78 68.60 15.13 68.63 19.03 C 69.11 22.81 64.28 25.90 61.12 23.63 C 58.12 22.13 57.72 17.48 60.46 15.49 Z" />
<path fill="#f5f5f5" opacity="1.00" d=" M 36.47 20.74 C 43.56 19.07 51.48 21.13 56.56 26.42 C 61.71 31.35 63.78 38.94 62.38 45.87 C 60.49 55.66 50.95 63.35 40.93 62.76 C 29.94 62.86 20.08 52.96 20.21 41.98 C 19.68 32.20 26.99 22.90 36.47 20.74 M 36.44 28.64 C 29.77 31.12 25.91 39.21 28.42 45.92 C 30.62 52.91 38.98 57.17 45.90 54.56 C 52.92 52.39 57.16 44.00 54.57 37.08 C 52.32 29.82 43.46 25.60 36.44 28.64 Z" />
</g>
</svg>
