<?xml version="1.0" encoding="UTF-8" ?>
<!DOCTYPE svg PUBLIC "-//W3C//DTD SVG 1.1//EN" "http://www.w3.org/Graphics/SVG/1.1/DTD/svg11.dtd">
<svg width="985pt" height="991pt" viewBox="0 0 985 991" version="1.1" xmlns="http://www.w3.org/2000/svg">
<g id="#ffffffff">
<path fill="#ffffff" opacity="1.00" d=" M 132.69 0.00 L 138.36 0.00 C 148.34 0.32 158.30 1.49 168.00 3.87 C 201.68 11.83 231.73 33.68 250.06 62.97 C 266.38 88.72 273.74 120.09 270.22 150.39 C 267.00 177.58 255.48 203.80 237.39 224.38 C 215.99 248.70 185.70 265.37 153.42 269.20 C 140.01 270.59 126.38 270.95 113.05 268.60 C 71.55 261.78 34.15 234.31 15.19 196.77 C 2.89 172.67 -2.03 144.83 1.51 117.99 C 5.37 86.27 21.15 56.19 44.95 34.89 C 68.71 13.16 100.47 0.46 132.69 0.00 Z" />
<path fill="#ffffff" opacity="1.00" d=" M 696.89 319.34 C 719.53 317.29 742.37 315.42 765.09 317.54 C 776.07 318.79 787.12 319.41 798.01 321.42 C 834.46 327.72 870.18 342.19 898.33 366.58 C 929.66 393.82 950.85 431.18 963.22 470.48 C 967.31 484.14 971.24 497.89 973.77 511.94 C 976.74 527.81 978.62 543.85 980.72 559.85 C 982.07 568.44 981.09 577.19 982.10 585.81 C 983.70 598.80 984.04 611.91 984.00 624.99 C 984.44 660.40 984.31 695.84 984.01 731.24 L 985.00 719.68 L 985.00 828.48 C 983.78 873.28 984.34 918.16 984.31 962.97 C 982.76 979.81 965.70 992.81 949.08 990.55 C 898.72 990.13 848.35 990.54 798.00 990.33 C 787.32 989.55 778.00 982.12 773.16 972.83 C 769.05 965.58 770.56 956.93 770.34 948.99 C 770.43 857.00 770.35 765.01 770.38 673.02 C 770.29 655.76 770.83 638.47 769.28 621.26 C 767.55 598.58 763.82 575.68 754.34 554.84 C 748.27 541.73 740.28 529.19 729.15 519.80 C 716.39 508.73 700.40 501.71 683.77 499.03 C 663.15 495.36 641.45 496.44 621.73 503.78 C 605.66 509.75 591.33 520.21 580.55 533.52 C 570.24 546.23 562.82 561.04 557.17 576.33 C 549.69 596.71 545.33 618.22 544.15 639.88 C 544.10 746.60 544.13 853.32 544.13 960.03 C 543.81 975.16 531.02 989.08 515.89 990.40 C 465.28 990.35 414.65 990.39 364.03 990.37 C 350.56 990.20 338.60 979.56 335.61 966.64 C 333.48 957.59 334.09 948.23 334.00 939.02 C 334.00 845.67 334.00 752.33 334.00 658.98 C 334.05 557.95 333.85 456.91 334.27 355.87 C 336.01 340.77 349.21 326.62 364.97 326.75 C 413.99 326.74 463.01 326.77 512.02 326.73 C 527.76 325.97 542.44 339.35 543.91 354.88 C 544.48 372.59 543.79 390.32 544.30 408.04 C 549.08 402.53 553.35 396.61 557.82 390.86 C 562.15 385.22 567.10 380.11 572.04 375.01 C 595.83 351.07 626.67 334.70 659.27 326.44 C 671.55 322.82 684.32 321.53 696.89 319.34 Z" />
<path fill="#ffffff" opacity="1.00" d=" M 56.45 327.65 C 59.91 326.94 63.47 326.73 67.00 326.74 C 113.98 326.78 160.96 326.70 207.94 326.78 C 225.30 326.70 240.81 342.57 240.05 359.98 C 240.22 473.65 240.08 587.32 240.13 700.98 C 240.06 784.67 240.26 868.35 240.00 952.03 C 239.89 956.29 240.38 960.62 239.39 964.83 C 236.42 978.47 223.90 989.61 209.86 990.33 C 160.60 990.48 111.34 990.43 62.07 990.34 C 45.76 989.83 31.46 975.29 31.04 959.00 C 30.66 945.01 30.98 931.00 30.87 917.00 C 30.87 735.01 30.87 553.03 30.87 371.04 C 31.07 364.85 30.27 358.54 31.82 352.48 C 34.80 340.63 44.44 330.44 56.45 327.65 Z" />
</g>
</svg>
