<?xml version="1.0" encoding="UTF-8" standalone="no"?>
<svg
   xmlns:dc="http://purl.org/dc/elements/1.1/"
   xmlns:cc="http://creativecommons.org/ns#"
   xmlns:rdf="http://www.w3.org/1999/02/22-rdf-syntax-ns#"
   xmlns:svg="http://www.w3.org/2000/svg"
   xmlns="http://www.w3.org/2000/svg"
   viewBox="0 0 800 1250.6667"
   height="1250.6667"
   width="800"
   xml:space="preserve"
   id="svg2"
   version="1.1"><metadata
     id="metadata8"><rdf:RDF><cc:Work
         rdf:about=""><dc:format>image/svg+xml</dc:format><dc:type
           rdf:resource="http://purl.org/dc/dcmitype/StillImage" /></cc:Work></rdf:RDF></metadata><defs
     id="defs6" /><g
     transform="matrix(1.3333333,0,0,-1.3333333,0,1250.6667)"
     id="g10"><g
       transform="scale(0.1)"
       id="g12"><path
         id="path14"
         style="fill:#000000;fill-opacity:1;fill-rule:nonzero;stroke:none"
         d="M 341.801,9380 H 5650.8 c 77.8,-7.2 154,-35.9 213.9,-86.6 79.9,-65.6 129.2,-165.3 135.3,-268.3 V 356.398 C 5992,241.199 5929.5,131.102 5832.6,67.6992 5777.6,29 5711.2,13.8984 5646.6,0 H 355.398 c -89,15.1016 -178.796,46.1992 -243,112.398 C 46.3984,176.102 7.30078,264.699 0,355.801 V 9025.2 c 6.19922,100.9 53.3984,198.7 130.699,264.2 58.699,51.7 134.102,80.7 211.102,90.6 m 33.097,-560 c 0.301,-1313.3 0,-2626.6 0.204,-3939.9 C 1375,4880 2375,4880 3374.9,4880 c 0.1,250 0.1,500 0,750 -750,0.2 -1500,-0.3 -2250,0.2 0.2,124.9 -0.1,249.8 0.2,374.7 374.9,0.3 749.9,0 1124.9,0.2 0,999.9 0,1999.9 0,2999.8 -563.5,0.2 -1126.9,-0.1 -1690.398,0.2 -98.301,2.5 -187.403,-86.8 -184.704,-185.1 M 2625.1,9004.9 c -0.1,-999.9 -0.1,-1999.9 0,-2999.8 374.9,-0.1 749.8,-0.1 1124.7,0 0.5,-375 0,-750 0.2,-1125.1 250,0 500,0 750,0 0.2,375.1 -0.3,750.1 0.2,1125.1 374.9,-0.1 749.8,-0.1 1124.7,0 0.1,938.1 0.2,1876.3 0,2814.4 1.5,98.7 -86.8,187.1 -185.5,185.3 -188.1,0.4 -376.2,0.1 -564.3,0.1 -0.2,-749.9 0.1,-1499.9 -0.2,-2249.8 -124.9,-0.3 -249.8,0 -374.7,-0.2 -0.5,750 0,1500 -0.3,2250 -624.9,0.1 -1249.9,0.1 -1874.8,0 M 4875.1,5630 c -0.1,-250 -0.1,-500 0,-750 249.9,0 499.9,0 749.8,0 0.1,250 0.1,500 0,750 -249.9,0 -499.9,0 -749.8,0 M 375.102,4504.9 C 375,4130 375,3755 375.102,3380.1 625,3380 875,3380 1124.9,3380.1 c 0.2,124.9 -0.1,249.9 0.2,374.8 124.9,0.3 249.8,0 374.7,0.2 0.1,-500.1 0.9,-1000.3 -0.4,-1500.4 -124.8,0.7 -249.6,0 -374.3,0.4 -0.3,249.9 0,499.9 -0.2,749.8 C 875,3005 625,3005 375.102,3004.9 375,2505 375,2005 375.102,1505.1 1000,1505 1625,1505 2250,1505.1 c 0,999.9 0,1999.9 0,2999.8 -625,0.1 -1250,0.1 -1874.898,0 m 2249.998,0 c -0.1,-249.9 -0.1,-499.9 0,-749.8 999.9,-0.1 1999.9,-0.1 2999.8,0 0.1,249.9 0.1,499.9 0,749.8 -999.9,0.1 -1999.9,0.1 -2999.8,0 m 0,-1124.9 c -0.1,-625 -0.1,-1250 0,-1874.9 749.9,-0.2 1499.9,0.1 2249.8,-0.2 0.3,-124.9 0,-249.8 0.2,-374.7 -1500,-0.5 -3000,0 -4499.998,-0.3 0.097,-189.798 -0.602,-379.701 0.296,-569.599 1,-96.301 87.5,-181 183.801,-180.102 1627.001,-0.5 3254.001,0.102 4880.901,-0.301 96.6,-2.5 184.7,83.5 184.9,180.102 -0.1,564.9 0.1,1129.9 -0.1,1694.9 -749.9,0.2 -1499.9,-0.1 -2249.8,0.2 -0.3,124.9 0,249.8 -0.2,374.7 750,0.5 1500,0 2250,0.2 0.1,250 0.1,500 0,750 -999.9,0 -1999.9,0 -2999.8,0 m -1500,4874.9 c 124.9,0.2 249.9,0.2 374.9,0.1 0,-500 0,-1000 0,-1500 -125,0 -250,-0.1 -374.9,0 -0.2,500 -0.2,1000 0,1499.9 m 2249.9,0 c 125,0.2 250,0.1 375,0.1 0,-500 0,-1000 0,-1500 -125,0 -250,-0.1 -374.9,0 -0.2,500 -0.2,1000 -0.1,1499.9" /></g></g></svg>