<?xml version="1.0" encoding="UTF-8" ?>
<!DOCTYPE svg PUBLIC "-//W3C//DTD SVG 1.1//EN" "http://www.w3.org/Graphics/SVG/1.1/DTD/svg11.dtd">
<svg width="192pt" height="192pt" viewBox="0 0 192 192" version="1.1" xmlns="http://www.w3.org/2000/svg">
<g id="#000000ff">
<path fill="#000000" opacity="1.00" d=" M 90.02 8.82 C 101.61 5.42 114.65 12.59 118.51 23.93 C 129.67 24.11 140.83 23.92 151.99 24.02 C 160.47 23.82 168.16 31.44 167.96 39.95 C 168.03 77.33 168.02 114.70 167.96 152.08 C 168.15 160.57 160.45 168.19 151.98 167.98 C 114.64 168.01 77.30 168.02 39.96 167.98 C 31.49 168.16 23.82 160.51 24.03 152.02 C 23.98 114.66 23.97 77.30 24.04 39.94 C 23.85 31.45 31.51 23.84 39.98 24.02 C 51.15 23.92 62.32 24.11 73.48 23.93 C 76.19 16.64 82.35 10.60 90.02 8.82 M 93.43 24.54 C 88.69 25.68 86.63 31.96 89.11 35.97 C 91.90 41.74 101.83 40.95 103.48 34.65 C 105.99 28.70 99.39 22.06 93.43 24.54 M 65.49 59.56 C 59.85 60.61 57.51 68.52 61.48 72.59 C 69.16 80.52 77.14 88.16 84.91 96.02 C 77.27 103.66 69.52 111.19 61.96 118.90 C 58.91 121.86 58.56 127.31 61.71 130.32 C 64.48 133.34 69.74 133.37 72.61 130.47 C 80.49 122.83 88.02 114.82 96.00 107.28 C 103.78 114.69 111.21 122.45 118.85 130.01 C 120.80 132.08 123.75 133.09 126.55 132.43 C 132.37 131.32 134.45 122.92 130.15 119.00 C 122.51 111.28 114.76 103.67 107.07 96.00 C 114.43 88.68 121.79 81.36 129.16 74.05 C 131.33 72.00 132.98 69.09 132.41 66.00 C 132.00 62.06 128.09 58.98 124.17 59.41 C 120.84 59.49 118.60 62.24 116.43 64.39 C 109.74 71.30 102.76 77.91 95.98 84.73 C 88.53 77.26 80.92 69.94 73.56 62.38 C 71.55 60.13 68.48 58.85 65.49 59.56 Z" />
</g>
</svg>
