<?xml version="1.0" encoding="UTF-8" ?>
<!DOCTYPE svg PUBLIC "-//W3C//DTD SVG 1.1//EN" "http://www.w3.org/Graphics/SVG/1.1/DTD/svg11.dtd">
<svg width="876pt" height="734pt" viewBox="0 0 876 734" version="1.1" xmlns="http://www.w3.org/2000/svg">
<g id="#ffffffff">
<path fill="#ffffff" opacity="1.00" d=" M 816.67 4.91 C 832.10 -2.55 852.80 -1.10 864.73 12.07 C 874.37 21.61 876.45 36.01 875.60 48.99 C 875.25 60.94 872.04 72.50 869.68 84.15 C 827.34 283.46 785.05 482.78 742.78 682.10 C 739.70 695.80 736.71 710.31 727.60 721.45 C 721.55 729.02 712.20 733.58 702.55 734.00 L 697.24 734.00 C 682.95 732.70 669.98 725.59 658.55 717.31 C 595.10 670.73 532.11 623.53 468.63 577.00 C 461.07 581.82 453.99 587.40 447.79 593.90 C 419.31 621.74 390.47 649.21 362.17 677.24 C 353.44 685.28 341.67 688.83 330.22 690.86 C 330.95 631.77 338.67 573.04 340.04 513.97 C 340.33 505.46 342.19 497.04 345.36 489.14 C 346.63 485.75 349.06 482.99 351.22 480.15 C 362.19 466.42 376.59 456.11 389.65 444.54 C 492.45 350.40 596.28 257.39 699.60 163.83 C 706.03 157.86 714.46 153.23 717.92 144.76 C 719.30 141.87 719.52 137.47 716.13 135.90 C 711.09 133.76 705.31 134.60 700.19 136.02 C 686.02 140.43 674.18 149.68 661.93 157.70 C 526.65 243.58 390.68 328.37 255.52 414.45 C 249.03 418.47 242.80 423.26 235.28 425.19 C 230.58 426.31 225.49 427.73 220.74 426.13 C 165.87 410.56 111.76 392.46 57.10 376.19 C 39.45 370.04 19.62 366.83 5.61 353.44 C -0.43 348.44 -1.05 339.12 2.53 332.50 C 4.88 328.66 8.01 325.33 11.28 322.25 C 22.49 312.01 36.88 306.43 50.81 300.97 C 305.77 201.45 561.62 104.19 816.67 4.91 Z" />
</g>
</svg>
