<?xml version="1.0" encoding="UTF-8" ?>
<!DOCTYPE svg PUBLIC "-//W3C//DTD SVG 1.1//EN" "http://www.w3.org/Graphics/SVG/1.1/DTD/svg11.dtd">
<svg width="1067pt" height="1067pt" viewBox="0 0 1067 1067" version="1.1" xmlns="http://www.w3.org/2000/svg">
<g id="#ffffffff">
<path fill="#ffffff" opacity="1.00" d=" M 701.35 103.12 C 739.33 96.69 779.08 100.18 815.14 113.85 C 845.83 125.40 873.95 143.80 896.71 167.42 C 898.16 169.70 900.90 168.15 902.98 167.90 C 949.99 157.66 995.31 139.97 1036.96 115.91 C 1024.84 154.52 1001.15 189.21 970.54 215.56 C 961.61 223.44 951.70 230.05 941.91 236.75 C 984.92 231.04 1027.37 219.75 1067.00 202.00 L 1067.00 202.35 C 1053.20 221.23 1039.10 239.97 1023.14 257.11 C 1012.30 268.94 1000.81 280.19 988.69 290.71 C 979.28 299.04 968.99 306.28 959.36 314.32 C 956.80 316.04 957.52 319.38 957.46 321.99 C 961.55 429.67 935.33 537.64 886.31 633.32 C 841.25 721.19 775.81 798.91 695.18 856.17 C 649.88 888.41 599.86 913.96 547.33 932.16 C 490.90 951.81 431.53 962.43 371.93 965.62 C 296.24 969.48 219.68 960.55 147.43 937.38 C 107.78 924.74 69.42 908.09 33.03 887.94 C 21.80 881.87 11.00 875.05 0.00 868.59 L 0.00 868.30 C 77.61 877.03 157.56 865.53 229.15 834.13 C 259.51 820.67 288.49 803.96 315.04 783.98 C 317.80 781.95 320.73 780.12 323.18 777.70 C 268.68 776.60 214.85 754.31 175.84 716.17 C 150.20 691.23 130.32 660.05 119.73 625.82 C 152.28 631.57 186.10 630.21 218.06 621.77 C 204.13 619.36 190.62 614.82 177.56 609.46 C 143.41 595.14 112.84 572.18 89.96 543.02 C 58.94 504.19 42.28 454.37 42.80 404.75 C 73.16 420.73 106.92 430.57 141.26 431.92 C 121.00 417.46 102.63 400.22 87.79 380.19 C 66.97 352.54 53.36 319.68 47.73 285.58 C 41.62 248.20 45.32 209.24 58.57 173.74 C 62.43 161.83 68.91 151.06 74.22 139.80 C 121.58 197.44 178.98 246.91 243.44 284.52 C 287.69 310.25 335.02 330.76 384.25 344.84 C 430.09 358.00 477.44 365.95 525.07 368.44 C 519.77 342.05 517.89 314.77 521.80 288.05 C 528.77 236.89 554.92 188.74 593.67 154.69 C 623.78 127.83 661.63 109.96 701.35 103.12 Z" />
</g>
</svg>
