<?xml version="1.0" encoding="UTF-8" ?>
<!DOCTYPE svg PUBLIC "-//W3C//DTD SVG 1.1//EN" "http://www.w3.org/Graphics/SVG/1.1/DTD/svg11.dtd">
<svg width="192pt" height="192pt" viewBox="0 0 192 192" version="1.1" xmlns="http://www.w3.org/2000/svg">
<g id="#000000ff">
<path fill="#000000" opacity="1.00" d=" M 24.00 40.01 C 47.99 29.32 72.00 18.68 95.99 8.00 C 120.00 18.67 144.00 29.32 168.00 40.01 C 167.98 55.99 168.04 71.97 167.97 87.95 C 167.92 111.33 159.45 134.57 144.47 152.51 C 132.24 167.75 115.09 179.37 95.99 183.83 C 76.91 179.35 59.75 167.77 47.54 152.53 C 32.57 134.60 24.09 111.37 24.03 88.02 C 23.96 72.01 24.02 56.01 24.00 40.01 M 40.13 50.33 C 39.85 62.57 40.06 74.82 40.01 87.06 C 39.89 105.84 46.06 124.65 57.49 139.58 C 67.00 152.62 80.65 162.51 96.00 167.50 C 107.27 163.74 117.77 157.57 126.19 149.15 C 142.07 133.42 151.75 111.44 151.96 89.02 C 152.00 76.15 152.08 63.27 151.92 50.40 C 133.24 42.20 114.64 33.79 96.01 25.50 C 77.37 33.74 58.84 42.24 40.13 50.33 Z" />
<path fill="#000000" opacity="1.00" d=" M 86.55 37.59 C 89.13 35.63 91.89 33.12 95.40 34.32 C 96.62 35.55 97.99 36.63 99.42 37.61 C 100.34 42.01 99.93 46.52 100.00 50.98 C 100.00 80.32 100.00 109.66 100.00 138.99 C 99.93 143.46 100.34 147.99 99.42 152.40 C 97.98 153.35 96.64 154.44 95.43 155.66 C 91.90 156.91 89.14 154.36 86.55 152.40 C 85.91 148.97 85.90 145.48 86.01 142.00 C 82.16 142.01 78.31 142.00 74.46 141.97 C 69.57 139.38 66.49 134.48 65.83 129.02 C 72.55 128.97 79.27 129.01 86.00 129.00 C 86.00 120.00 86.00 111.00 86.00 102.00 C 83.33 102.03 80.65 102.09 77.98 101.85 C 74.59 101.76 72.24 98.96 69.30 97.65 C 68.18 94.44 65.76 91.60 66.02 88.02 C 66.00 78.96 65.95 69.90 66.04 60.85 C 66.27 55.35 69.80 50.58 74.54 48.01 C 78.36 48.00 82.19 47.99 86.01 48.00 C 85.90 44.52 85.92 41.03 86.55 37.59 M 80.00 61.00 C 80.00 70.00 80.00 79.00 80.00 88.00 C 82.00 87.99 84.00 87.99 86.00 88.00 C 86.00 79.00 86.00 70.00 86.00 61.00 C 84.00 61.01 82.00 61.00 80.00 61.00 Z" />
<path fill="#000000" opacity="1.00" d=" M 107.00 48.00 C 110.82 48.00 114.65 47.99 118.47 48.01 C 123.41 50.57 126.50 55.51 127.17 60.98 C 120.45 61.02 113.72 60.99 107.00 61.00 C 107.00 56.67 107.00 52.33 107.00 48.00 Z" />
<path fill="#000000" opacity="1.00" d=" M 107.00 88.01 C 109.70 87.98 112.41 87.90 115.10 88.16 C 118.45 88.28 120.78 91.05 123.70 92.36 C 124.82 95.57 127.25 98.40 126.98 101.98 C 127.00 111.01 127.05 120.05 126.96 129.07 C 126.76 134.59 123.23 139.39 118.48 141.99 C 114.65 142.01 110.82 142.00 107.00 142.00 C 107.00 137.67 107.00 133.34 107.00 129.00 C 109.00 129.00 111.00 129.00 113.00 129.00 C 113.00 120.00 113.00 111.00 113.00 102.00 C 111.00 102.00 109.00 102.00 107.00 102.00 C 107.00 97.33 107.00 92.67 107.00 88.01 Z" />
</g>
</svg>
