<?xml version="1.0" encoding="UTF-8" ?>
<!DOCTYPE svg PUBLIC "-//W3C//DTD SVG 1.1//EN" "http://www.w3.org/Graphics/SVG/1.1/DTD/svg11.dtd">
<svg width="96pt" height="96pt" viewBox="0 0 96 96" version="1.1" xmlns="http://www.w3.org/2000/svg">
<g id="#000000ff">
<path fill="#000000" opacity="1.00" d=" M 33.36 8.43 C 38.43 6.89 43.13 10.08 48.00 10.87 C 53.29 9.92 58.68 6.41 64.09 8.92 C 69.79 10.92 71.17 17.28 74.29 21.72 C 78.72 24.83 85.06 26.23 87.07 31.91 C 89.59 37.32 86.10 42.71 85.13 48.00 C 86.08 53.28 89.58 58.68 87.07 64.09 C 85.06 69.76 78.72 71.18 74.28 74.29 C 71.18 78.73 69.75 85.03 64.09 87.07 C 58.69 89.59 53.29 86.09 48.00 85.13 C 42.71 86.08 37.32 89.58 31.91 87.07 C 26.25 85.03 24.81 78.73 21.72 74.28 C 17.28 71.17 10.94 69.77 8.92 64.09 C 6.39 58.68 9.91 53.29 10.87 48.00 C 9.91 42.71 6.40 37.32 8.92 31.91 C 10.94 26.24 17.28 24.83 21.71 21.71 C 24.96 16.84 26.77 9.82 33.36 8.43 M 43.99 54.29 C 41.06 51.16 37.80 48.36 34.87 45.23 C 32.97 47.08 31.10 48.96 29.24 50.86 C 34.11 55.82 39.00 60.76 44.00 65.58 C 53.00 56.76 61.89 47.81 70.76 38.86 C 68.91 36.97 67.04 35.09 65.14 33.25 C 58.01 40.18 51.10 47.34 43.99 54.29 Z" />
</g>
</svg>
