<svg width="24pt" height="24pt" viewBox="0 0 512 512" version="1.1" xmlns="http://www.w3.org/2000/svg">
  <path fill="none" d="M0 0h24v24H0V0z"/>
  <path fill="#000000" opacity="1.00" d=" M 131.42 72.58 C 209.61 72.24 287.84 72.53 366.04 72.44 C 370.66 72.50 375.29 72.30 379.91 72.52 C 384.58 72.89 388.42 77.34 388.19 82.02 C 388.22 197.01 388.20 312.00 388.20 426.98 C 388.56 432.47 383.39 437.26 377.97 436.73 C 296.29 436.70 214.61 436.76 132.94 436.70 C 127.79 436.83 123.28 432.03 123.66 426.91 C 123.66 311.95 123.64 196.99 123.67 82.03 C 123.44 77.52 126.95 73.23 131.42 72.58 M 254.28 127.42 C 239.84 128.59 225.80 135.21 216.11 146.04 C 208.01 154.95 203.29 166.89 203.47 178.96 C 203.45 230.32 203.44 281.68 203.47 333.04 C 203.51 351.89 216.06 369.13 232.72 377.19 C 248.39 385.06 267.53 385.50 283.58 378.46 C 297.49 372.47 309.11 360.64 313.54 346.00 C 316.22 337.94 315.51 329.36 315.59 321.01 C 315.58 273.36 315.61 225.70 315.58 178.04 C 315.61 164.81 309.55 151.94 299.96 142.94 C 287.92 131.47 270.78 125.86 254.28 127.42 M 134.84 160.27 C 134.79 163.27 134.77 166.27 134.81 169.27 C 153.50 169.28 172.19 169.29 190.87 169.27 C 190.88 166.27 190.88 163.27 190.86 160.28 C 172.19 160.28 153.52 160.29 134.84 160.27 M 324.95 160.29 C 324.93 163.28 324.94 166.28 324.95 169.27 C 343.64 169.28 362.32 169.28 381.00 169.27 C 381.02 166.27 381.01 163.27 380.99 160.28 C 362.31 160.29 343.63 160.27 324.95 160.29 M 134.45 188.54 C 134.43 191.53 134.43 194.52 134.45 197.51 C 153.13 197.52 171.82 197.52 190.50 197.51 C 190.52 194.52 190.52 191.53 190.50 188.54 C 171.82 188.53 153.13 188.53 134.45 188.54 M 324.59 188.54 C 324.58 191.53 324.57 194.51 324.58 197.50 C 343.27 197.54 361.96 197.51 380.64 197.51 C 380.67 194.52 380.66 191.52 380.63 188.53 C 361.95 188.54 343.27 188.52 324.59 188.54 M 134.63 212.49 C 134.62 215.48 134.63 218.47 134.63 221.46 C 153.31 221.48 171.99 221.45 190.67 221.48 C 190.71 218.48 190.72 215.47 190.69 212.47 C 172.00 212.48 153.31 212.45 134.63 212.49 M 324.76 212.49 C 324.76 215.48 324.77 218.47 324.78 221.46 C 343.46 221.47 362.15 221.48 380.84 221.45 C 380.85 218.46 380.84 215.46 380.83 212.47 C 362.14 212.49 343.45 212.44 324.76 212.49 M 135.09 238.39 C 135.08 241.39 135.07 244.38 135.08 247.38 C 153.77 247.39 172.46 247.39 191.15 247.38 C 191.14 244.40 191.16 241.43 191.17 238.45 C 172.48 238.31 153.79 238.44 135.09 238.39 M 325.23 238.39 C 325.22 241.39 325.21 244.38 325.22 247.38 C 343.91 247.40 362.60 247.39 381.29 247.38 C 381.29 244.39 381.30 241.40 381.29 238.41 C 362.61 238.37 343.92 238.40 325.23 238.39 M 135.09 264.68 C 135.07 267.67 135.07 270.66 135.09 273.66 C 153.76 273.66 172.43 273.63 191.09 273.67 C 191.16 270.67 191.18 267.68 191.14 264.68 C 172.45 264.67 153.77 264.67 135.09 264.68 M 325.22 264.69 C 325.21 267.67 325.21 270.66 325.23 273.65 C 343.93 273.60 362.64 273.77 381.34 273.57 C 381.30 270.60 381.28 267.64 381.29 264.68 C 362.60 264.67 343.91 264.66 325.22 264.69 M 135.08 290.04 C 135.07 293.03 135.07 296.02 135.08 299.02 C 153.77 299.04 172.46 299.03 191.14 299.02 C 191.16 296.02 191.16 293.03 191.14 290.04 C 172.46 290.03 153.77 290.03 135.08 290.04 M 325.22 290.04 C 325.21 293.03 325.22 296.02 325.22 299.02 C 343.91 299.03 362.60 299.03 381.29 299.02 C 381.30 296.02 381.30 293.03 381.29 290.04 C 362.60 290.03 343.91 290.02 325.22 290.04 M 135.09 315.96 C 135.07 318.96 135.07 321.95 135.08 324.95 C 153.77 324.96 172.46 324.96 191.15 324.95 C 191.16 321.95 191.16 318.96 191.15 315.97 C 172.46 315.95 153.77 315.95 135.09 315.96 M 325.23 315.97 C 325.22 318.96 325.21 321.95 325.22 324.94 C 343.91 324.96 362.60 324.95 381.29 324.95 C 381.30 321.95 381.30 318.96 381.29 315.97 C 362.60 315.95 343.91 315.94 325.23 315.97 M 135.08 342.60 C 135.07 345.60 135.07 348.60 135.09 351.60 C 153.81 351.47 172.54 351.82 191.25 351.42 C 191.13 348.48 191.13 345.54 191.15 342.60 C 172.46 342.59 153.77 342.59 135.08 342.60 M 325.20 342.64 C 325.21 345.62 325.22 348.61 325.23 351.59 C 343.92 351.58 362.61 351.61 381.29 351.58 C 381.30 348.58 381.29 345.59 381.29 342.60 C 362.59 342.62 343.89 342.54 325.20 342.64 Z" />
  <path fill="#000000" opacity="1.00" d=" M 258.27 173.39 C 268.43 171.66 278.52 180.75 277.86 191.03 C 277.87 200.95 268.02 209.28 258.24 207.63 C 249.13 206.58 242.08 197.39 243.47 188.32 C 244.31 180.75 250.71 174.30 258.27 173.39 Z" />
</svg>
