<svg xmlns="http://www.w3.org/2000/svg" width="24" height="24" viewBox="0 0 24 24">
  <path fill="none" d="M0 0h24v24H0V0z"/>
<path d="M 6 2 C 4.897 2 4 2.897 4 4 L 4 20 C 4 21.103 4.897 22 6 22 L 18 22 C 19.103 22 20 21.103 20 20 L 20 4 C 20 2.897 19.103 2 18 2 L 6 2 z M 7 4 C 7.552 4 8 4.448 8 5 C 8 5.552 7.552 6 7 6 C 6.448 6 6 5.552 6 5 C 6 4.448 6.448 4 7 4 z M 10 4 C 10.552 4 11 4.448 11 5 C 11 5.552 10.552 6 10 6 C 9.448 6 9 5.552 9 5 C 9 4.448 9.448 4 10 4 z M 12 9 C 14.761 9 17 11.239 17 14 C 17 16.761 14.761 19 12 19 C 9.239 19 7 16.761 7 14 C 7 11.239 9.239 9 12 9 z M 9 14 C 9 15.657 10.343 17 12 17 C 13.657 17 15 15.657 15 14 L 9 14 z"></path>
</svg>
