<svg xmlns="http://www.w3.org/2000/svg" width="24" height="24" viewBox="0 0 24 24">
  <path fill="none" d="M0 0h24v24H0V0z"/>
<path d="M 8 2 C 7.448 2 7 2.448 7 3 L 7 4 C 7 4.552 7.448 5 8 5 C 8.552 5 9 4.552 9 4 L 9 3 C 9 2.448 8.552 2 8 2 z M 12 2 C 11.448 2 11 2.448 11 3 L 11 4 C 11 4.552 11.448 5 12 5 C 12.552 5 13 4.552 13 4 L 13 3 C 13 2.448 12.552 2 12 2 z M 16 2 C 15.448 2 15 2.448 15 3 L 15 4 C 15 4.552 15.448 5 16 5 C 16.552 5 17 4.552 17 4 L 17 3 C 17 2.448 16.552 2 16 2 z M 5 6 C 4.448 6 4 6.448 4 7 C 4 9.61278 5.6474825 11.891261 8.078125 13.09375 L 4.640625 20.601562 C 4.341625 21.255562 4.8181094 22 5.5371094 22 C 5.9231094 22 6.2745469 21.775781 6.4355469 21.425781 L 8.015625 18 L 15.970703 18 L 16.365234 18.851562 A 2 2 0 0 0 16 20 A 2 2 0 0 0 18 22 A 2 2 0 0 0 20 20 A 2 2 0 0 0 18.179688 18.009766 L 15.904297 13.103516 C 18.344903 11.903429 20 9.6192803 20 7 C 20 6.448 19.552 6 19 6 L 5 6 z M 9.96875 13.763672 C 10.61866 13.913324 11.297157 14 12 14 C 12.694528 14 13.364843 13.913823 14.007812 13.767578 L 15.042969 16 L 8.9375 16 L 9.96875 13.763672 z"></path>
</svg>
