<svg xmlns="http://www.w3.org/2000/svg" width="24" height="24" viewBox="0 0 24 24">
  <path fill="none" d="M0 0h24v24H0V0z"/>
<path d="M 6 2 C 4.355469 2 3 3.355469 3 5 L 3 19 C 3 20.644531 4.355469 22 6 22 L 18 22 C 19.644531 22 21 20.644531 21 19 L 21 5 C 21 3.355469 19.644531 2 18 2 Z M 6 4 L 8 4 L 8 7 L 16 7 L 16 4 L 18 4 C 18.554688 4 19 4.445313 19 5 L 19 11 L 15.84375 11 C 15.398438 9.277344 13.863281 8 12 8 C 10.136719 8 8.601563 9.277344 8.15625 11 L 5 11 L 5 5 C 5 4.445313 5.445313 4 6 4 Z M 10 4 L 14 4 L 14 5 L 10 5 Z M 12 10 C 12.808594 10 13.429688 10.386719 13.75 11 L 10.25 11 C 10.570313 10.386719 11.191406 10 12 10 Z M 5 13 L 8.15625 13 C 8.601563 14.722656 10.136719 16 12 16 C 13.863281 16 15.398438 14.722656 15.84375 13 L 19 13 L 19 19 C 19 19.554688 18.554688 20 18 20 L 16 20 L 16 17 L 8 17 L 8 20 L 6 20 C 5.445313 20 5 19.554688 5 19 Z M 10.25 13 L 13.75 13 C 13.429688 13.613281 12.808594 14 12 14 C 11.191406 14 10.570313 13.613281 10.25 13 Z M 10 19 L 14 19 L 14 20 L 10 20 Z "></path>
</svg>
