<svg xmlns="http://www.w3.org/2000/svg" width="24" height="24" viewBox="0 0 24 24">
  <path fill="none" d="M0 0h24v24H0V0z"/>
<path d="M 20.300781 3.699219 L 18.699219 2 C 17.398438 3.300781 13.398438 3.398438 12 2 C 10.601563 3.398438 6.601563 3.300781 5.300781 2 L 3.699219 3.699219 C 3.699219 3.699219 4.699219 5.5 4.699219 7 C 4.699219 9.5 3.699219 10.5 3.699219 13.800781 C 3.699219 19.898438 10.800781 21.101563 12 22 C 13.300781 21.101563 20.300781 19.800781 20.300781 13.800781 C 20.300781 10.5 19.300781 9.601563 19.300781 7 C 19.300781 5.5 20.300781 3.699219 20.300781 3.699219 Z M 14.898438 16.101563 L 12 14.300781 L 9.101563 16 L 9.800781 12.699219 L 7.300781 10.5 L 10.699219 10.199219 L 12 7.101563 L 13.398438 10.199219 L 16.800781 10.5 L 14.300781 12.699219 Z "></path>
</svg>
