<svg xmlns="http://www.w3.org/2000/svg" width="24" height="24" viewBox="0 0 24 24">
  <path fill="none" d="M0 0h24v24H0V0z"/>
  <path d="M 17 2 A 2 2 0 0 0 15 4 A 2 2 0 0 0 17 6 A 2 2 0 0 0 19 4 A 2 2 0 0 0 17 2 z M 11 3 A 2 2 0 0 0 9 5 A 2 2 0 0 0 11 7 A 2 2 0 0 0 13 5 A 2 2 0 0 0 11 3 z M 5.0214844 5.0449219 L 4.0214844 9.7949219 A 1.0001 1.0001 0 0 0 5.1347656 10.990234 L 9 10.466797 L 9 15.599609 L 8.265625 17.246094 A 1.0001 1.0001 0 0 0 8.2402344 17.3125 A 1.0001 1.0001 0 0 0 8.2167969 17.326172 L 5.0117188 19.269531 L 6.0488281 20.980469 L 9.2304688 19.050781 C 9.6467485 18.814348 9.9581496 18.439315 10.119141 17.996094 L 10.09375 18.060547 L 11.207031 15.558594 L 12 15.400391 L 12 17.869141 L 11.033203 21.492188 L 12.966797 22.007812 L 13.929688 18.390625 C 13.977685 18.215325 14 18.040432 14 17.869141 L 14 15 L 14 9.7890625 L 19.884766 8.9902344 L 19.615234 7.0097656 L 6.2695312 8.8183594 L 6.9785156 5.4550781 L 5.0214844 5.0449219 z"></path>
</svg>
