<svg xmlns="http://www.w3.org/2000/svg" width="24" height="24" viewBox="0 0 24 24">
  <path fill="none" d="M0 0h24v24H0V0z"/>
<path d="M 5 2 C 3.841 2 3 2.841 3 4 L 3 11 L 9 11 L 9 4 C 9 2.841 8.159 2 7 2 L 5 2 z M 6 4 C 6.552 4 7 4.448 7 5 L 7 6 C 7 6.552 6.552 7 6 7 C 5.448 7 5 6.552 5 6 L 5 5 C 5 4.448 5.448 4 6 4 z M 3 13 C 3 15.656 4.484 18.114781 7 19.675781 L 7 21 C 7 21.552 7.448 22 8 22 L 16 22 C 16.552 22 17 21.552 17 21 L 17 19.675781 C 19.152 18.340781 20.548203 16.350625 20.908203 14.140625 C 21.006203 13.540625 20.519109 13 19.912109 13 L 3 13 z"></path>
</svg>
