<svg xmlns="http://www.w3.org/2000/svg" width="24" height="24" viewBox="0 0 24 24">
  <path fill="none" d="M0 0h24v24H0V0z"/>
<path d="M 5 3 C 3.9 3 3 3.9 3 5 L 3 19 C 3 20.1 3.9 21 5 21 L 19 21 C 20.1 21 21 20.1 21 19 L 21 5 C 21 3.9 20.1 3 19 3 L 5 3 z M 11.980469 7 C 13.340469 7 14.310937 7.2707812 14.960938 7.8007812 C 15.580937 8.3007812 16 9.1198437 16 10.089844 C 16 11.059844 15.679609 11.889219 15.099609 12.449219 C 14.349609 13.169219 13.239453 13.490234 11.939453 13.490234 C 11.649453 13.490234 11.2 13.440156 11 13.410156 L 11 16 C 11 16.552 10.552 17 10 17 C 9.448 17 9 16.552 9 16 L 9 8.0859375 C 9 7.5689375 9.3892969 7.1398437 9.9042969 7.0898438 C 10.463297 7.0348437 11.145469 7 11.980469 7 z M 12.089844 8.6894531 C 11.649844 8.6894531 11.16 8.7705469 11 8.8105469 L 11 11.650391 C 11.19 11.700391 11.599922 11.769531 11.919922 11.769531 C 13.089922 11.769531 13.820312 11.170391 13.820312 10.150391 C 13.820312 9.2403906 13.189844 8.6894531 12.089844 8.6894531 z"></path>
  </svg>
