<svg xmlns="http://www.w3.org/2000/svg" width="24" height="24" viewBox="0 0 24 24">
  <path fill="none" d="M0 0h24v24H0V0z"/>
<path d="M 4 2 C 2.895 2 2 2.895 2 4 L 2 6 L 22 6 L 22 4 C 22 2.895 21.105 2 20 2 L 4 2 z M 3 8 L 3 20 C 3 21.105 3.895 22 5 22 L 19 22 C 20.105 22 21 21.105 21 20 L 21 8 L 3 8 z M 12 10 C 14.761 10 17 12.239 17 15 L 17 20 L 12 20 L 7 20 L 7 15 C 7 12.239 9.239 10 12 10 z M 12 20 C 11.2 20 10.5 19.3 10.5 18.5 C 10.5 17.7 11.5 16.5 12 16 C 12.5 16.5 13.5 17.7 13.5 18.5 C 13.5 19.3 12.8 20 12 20 z M 12 20 C 13.7 20 14.998047 18.7 14.998047 17 C 14.998047 15.3 13 13 12 12 C 11 13 9.0019531 15.3 9.0019531 17 C 9.0019531 18.7 10.3 20 12 20 z"></path>
</svg>
