<svg xmlns="http://www.w3.org/2000/svg" width="24" height="24" viewBox="0 0 24 24">
  <path fill="none" d="M0 0h24v24H0V0z"/>
<path d="M 11 1 L 11 4 L 13 4 L 13 1 Z M 4.90625 3.5 L 3.5 4.90625 L 5.28125 6.71875 L 6.71875 5.28125 Z M 19.09375 3.5 L 17.28125 5.28125 L 18.71875 6.71875 L 20.5 4.90625 Z M 8.6875 6 C 7.222656 6 6 7.085938 5.71875 8.5 L 5.71875 8.5625 L 4.125 20 L 3 20 L 3 22 L 21 22 L 21 20 L 19.875 20 L 18.1875 8.59375 C 18.1875 8.582031 18.1875 8.574219 18.1875 8.5625 C 18.027344 7.097656 16.769531 6 15.3125 6 Z M 8.6875 8 L 15.3125 8 C 15.847656 8 16.167969 8.292969 16.21875 8.8125 L 16.21875 8.84375 L 16.25 9 L 9.40625 9 C 9.207031 9 9.007813 9.207031 8.90625 9.40625 L 7.4375 20 L 6.15625 20 L 7.6875 8.90625 C 7.804688 8.320313 8.152344 8 8.6875 8 Z M 1 11 L 1 13 L 4 13 L 4 11 Z M 20 11 L 20 13 L 23 13 L 23 11 Z "></path>
</svg>
