<svg xmlns="http://www.w3.org/2000/svg" width="24" height="24" viewBox="0 0 24 24">
  <path fill="none" d="M0 0h24v24H0V0z"/>
<path d="M 4 4 C 2.897 4 2 4.897 2 6 L 2 18 C 2 19.103 2.897 20 4 20 L 5 20 L 5 21 L 8 21 L 8 20 L 16 20 L 16 21 L 19 21 L 19 20 L 20 20 C 21.103 20 22 19.103 22 18 L 22 6 C 22 4.897 21.103 4 20 4 L 4 4 z M 5 7 L 15 7 L 15 17 L 5 17 L 5 7 z M 18 7 L 20 7 L 20 9 L 18 9 L 18 7 z M 18 11 L 20 11 L 20 13 L 18 13 L 18 11 z M 18 15 L 20 15 L 20 17 L 18 17 L 18 15 z"></path>
</svg>
