<svg xmlns="http://www.w3.org/2000/svg" width="24" height="24" viewBox="0 0 24 24">
  <path fill="none" d="M0 0h24v24H0V0z"/>
<path d="M17,2H7C5.343,2,4,3.343,4,5v5h13c0.552,0,1,0.448,1,1v0c0,0.552-0.448,1-1,1H4v7c0,1.657,1.343,3,3,3h10 c1.657,0,3-1.343,3-3V5C20,3.343,18.657,2,17,2z M8,8L8,8C7.448,8,7,7.552,7,7v0c0-0.552,0.448-1,1-1h0c0.552,0,1,0.448,1,1v0 C9,7.552,8.552,8,8,8z M8,18L8,18c-0.552,0-1-0.448-1-1v-2c0-0.552,0.448-1,1-1h0c0.552,0,1,0.448,1,1v2C9,17.552,8.552,18,8,18z"></path>
</svg>
