<svg xmlns="http://www.w3.org/2000/svg" width="24" height="24" viewBox="0 0 24 24">
  <path fill="none" d="M0 0h24v24H0V0z"/>
<path d="M 14 2 L 6 3 L 6 21 L 14 22 Z M 15 3 L 15 5 L 16 5 L 16 19 L 15 19 L 15 21 L 18 21 L 18 3 Z M 3.1875 7.5 C 2.4375 8.765625 2 10.316406 2 12 C 2 13.683594 2.4375 15.234375 3.1875 16.5 L 4.90625 15.5 C 4.351563 14.5625 4 13.335938 4 12 C 4 10.664063 4.351563 9.4375 4.90625 8.5 Z M 20.8125 7.5 L 19.09375 8.5 C 19.648438 9.4375 20 10.664063 20 12 C 20 13.335938 19.648438 14.5625 19.09375 15.5 L 20.8125 16.5 C 21.5625 15.234375 22 13.683594 22 12 C 22 10.316406 21.5625 8.765625 20.8125 7.5 Z M 11.5 12 C 11.777344 12 12 12.449219 12 13 C 12 13.550781 11.777344 14 11.5 14 C 11.222656 14 11 13.550781 11 13 C 11 12.449219 11.222656 12 11.5 12 Z "></path>
</svg>
