<svg xmlns="http://www.w3.org/2000/svg" width="24" height="24" viewBox="0 0 24 24">
  <path fill="none" d="M0 0h24v24H0V0z"/>
<path d="M 3.6894531 3.0019531 C 3.187 2.9771563 2.6870938 3.1004844 2.2460938 3.3652344 C 1.0320938 4.0932344 0.63809375 5.6744844 1.3710938 6.8964844 L 3.4960938 10.359375 C 4.5030937 8.952375 5.9487188 7.8804219 7.6367188 7.3574219 L 5.7695312 4.2460938 C 5.4165313 3.6590937 4.8564062 3.2421719 4.1914062 3.0761719 C 4.0251563 3.0346719 3.8569375 3.0102187 3.6894531 3.0019531 z M 10 9 C 6.691 9 4 11.691 4 15 L 4 18 C 4 19.103 4.897 20 6 20 L 6 22 L 8 22 L 8 20 L 15 20 L 15 22 L 17 22 L 17 20 C 18.103 20 19 19.103 19 18 L 19 16 L 21.400391 17.800781 L 22.599609 16.199219 L 19 13.5 L 19 13 C 19 10.794 17.206 9 15 9 L 10 9 z" font-weight="400" font-family="sans-serif" white-space="normal" overflow="visible"></path>
</svg>
