<svg xmlns="http://www.w3.org/2000/svg" width="24" height="24" viewBox="0 0 24 24">
  <path fill="none" d="M0 0h24v24H0V0z"/>
<path d="M 4 2 C 2.894531 2 2 2.894531 2 4 C 2 5.105469 2.894531 6 4 6 C 5.105469 6 6 5.105469 6 4 C 6 2.894531 5.105469 2 4 2 Z M 14.375 2 C 12 2.035156 9.648438 3.21875 7.90625 4.90625 C 6.804688 6.007813 6.011719 7.40625 5.8125 8.90625 L 15.09375 18.1875 C 16.59375 17.886719 17.992188 17.195313 19.09375 16.09375 C 22.09375 12.992188 23.488281 8.011719 19.6875 4.3125 C 18.070313 2.648438 16.222656 1.972656 14.375 2 Z M 5.6875 10.59375 C 5.6875 11.492188 5.789063 12.507813 6.1875 13.40625 C 6.289063 13.605469 6.601563 15.210938 6 15.8125 C 4.699219 17.011719 3.011719 18.1875 2.3125 18.6875 C 1.710938 19.289063 2.011719 20.292969 2.8125 21.09375 C 3.710938 21.992188 4.585938 22.195313 5.1875 21.59375 C 5.789063 20.992188 6.886719 19.300781 8.1875 18 C 8.789063 17.5 10.195313 17.710938 10.59375 17.8125 C 11.492188 18.113281 12.507813 18.3125 13.40625 18.3125 Z "></path>
</svg>
