<svg xmlns="http://www.w3.org/2000/svg" width="24" height="24" viewBox="0 0 24 24">
  <path fill="none" d="M0 0h24v24H0V0z"/>
<path d="M 11 2 L 11 4.03125 C 5.933594 4.390625 2 7.460938 2 11.125 C 2.003906 12.171875 2.925781 13 4 13 C 4.699219 13 5.328125 12.660156 5.6875 12.1875 C 6.351563 12.683594 7.082031 13 8 13 C 8.863281 13 9.761719 12.722656 10.40625 12.28125 C 10.566406 12.453125 10.777344 12.59375 11 12.71875 L 11 21.3125 L 9.90625 20.03125 C 6.507813 20.144531 4 20.539063 4 21 C 4 21.550781 7.582031 22 12 22 C 16.417969 22 20 21.550781 20 21 C 20 20.492188 16.925781 20.09375 13 20.03125 L 13 12.71875 C 13.222656 12.59375 13.433594 12.453125 13.59375 12.28125 C 14.238281 12.722656 15.136719 13 16 13 C 16.917969 13 17.648438 12.683594 18.3125 12.1875 C 18.671875 12.660156 19.300781 13 20 13 C 21.074219 13 21.996094 12.171875 22 11.125 C 22 7.460938 18.066406 4.390625 13 4.03125 L 13 2 Z M 12 4 C 12 4 16.519531 5.234375 17.71875 9.28125 C 17.734375 9.351563 17.734375 9.429688 17.75 9.5 C 17.925781 10.320313 17.25 11 16 11 C 14.976563 11 14 10.226563 14 9.34375 C 13.734375 5.527344 12 4 12 4 Z M 12 4 C 12 4 10.265625 5.527344 10 9.34375 C 10 10.226563 9.023438 11 8 11 C 6.890625 11 6.230469 10.445313 6.21875 9.75 C 7.269531 5.769531 12 4 12 4 Z "></path>
</svg>
