<svg xmlns="http://www.w3.org/2000/svg" width="24" height="24" viewBox="0 0 24 24">
  <path fill="none" d="M0 0h24v24H0V0z"/>
<path  d="M 11 1.9375 C 10.449219 1.9375 10 2.386719 10 2.9375 C 10 3.488281 10.449219 3.9375 11 3.9375 C 11.550781 3.9375 12 3.488281 12 2.9375 C 12 2.386719 11.550781 1.9375 11 1.9375 Z M 8 4 C 6.894531 4 6 4.894531 6 6 L 4 6 C 3.199219 6 2.714844 6.898438 3.15625 7.5625 L 5 10.3125 L 5 20 C 5 21.105469 5.894531 22 7 22 L 15 22 C 16.105469 22 17 21.105469 17 20 L 17 17 C 19.210938 17 21 15.210938 21 13 L 21 8 C 21 7.476563 20.816406 6.941406 20.4375 6.5625 C 20.058594 6.183594 19.523438 6 19 6 L 16 6 C 16 4.894531 15.105469 4 14 4 Z M 5.875 8 L 11 8 L 11 11.9375 L 10 11.9375 C 8.894531 11.9375 8 12.832031 8 13.9375 L 15 13.9375 L 15 15 L 8 15 L 8 20 L 7 20 L 7 9.6875 Z M 13 8 L 15 8 L 15 12.1875 C 14.707031 12.019531 14.363281 11.9375 14 11.9375 L 13 11.9375 Z M 17 8 L 19 8 L 19 13 C 19 14.191406 18.191406 15 17 15 Z "></path>
</svg>
