<svg xmlns="http://www.w3.org/2000/svg" width="24" height="24" viewBox="0 0 24 24">
  <path fill="none" d="M0 0h24v24H0V0z"/>
<path d="M 6 3 C 3.243 3 1 5.243 1 8 C 1 9.33 1.5174375 10.582844 2.5234375 11.589844 L 3.3066406 12.242188 L 4 19.189453 C 4.093 20.214453 4.953375 21 5.984375 21 C 7.155375 21 8.07475 19.994125 7.96875 18.828125 L 7.6914062 16 L 8 16 A 1.0001 1.0001 0 1 0 8 14 L 7.4960938 14 L 7.4433594 13.458984 C 7.3943594 12.953984 7.7305625 12.492766 8.2265625 12.384766 L 14 11.134766 L 14 4.8300781 L 13.25 4.6210938 C 10.183 3.7670937 7.321 3 6 3 z M 18.292969 4.0039062 C 18.16575 3.991375 18.031844 4.0096562 17.902344 4.0664062 L 16 5 L 16 11 L 17.925781 12 C 18.440781 12.206 19 11.826484 19 11.271484 L 19 4.7851562 C 19 4.3614062 18.674625 4.0415 18.292969 4.0039062 z M 21 5 L 21 7 L 22 7 C 22.553 7 23 6.553 23 6 C 23 5.447 22.553 5 22 5 L 21 5 z M 6 6 C 7.105 6 8 6.895 8 8 C 8 9.105 7.105 10 6 10 C 4.895 10 4 9.105 4 8 C 4 6.895 4.895 6 6 6 z M 21 9 L 21 11 L 22 11 C 22.553 11 23 10.553 23 10 C 23 9.447 22.553 9 22 9 L 21 9 z" font-weight="400" font-family="sans-serif" white-space="normal" overflow="visible"></path>
</svg>
