<svg xmlns="http://www.w3.org/2000/svg" width="24" height="24" viewBox="0 0 24 24">
  <path fill="none" d="M0 0h24v24H0V0z"/>
  <path d="M 9 2 C 7.347656 2 6 3.347656 6 5 L 6 14.9375 C 6.175781 14.972656 6.347656 15 6.5 15 C 6.949219 15 7.539063 14.851563 8 14.53125 L 8 5 C 8 4.449219 8.449219 4 9 4 L 10 4 L 10 2 Z M 19 2 C 17.347656 2 16 3.347656 16 5 L 16 7 L 9 7 L 9 9 L 16 9 L 16 11 L 9 11 L 9 13 L 16 13 L 16 14.9375 C 16.175781 14.972656 16.347656 15 16.5 15 C 16.949219 15 17.539063 14.851563 18 14.53125 L 18 5 C 18 4.449219 18.449219 4 19 4 L 20 4 L 20 2 Z M 4 15 C 3.421875 15.59375 2.644531 15.875 2 15.96875 L 2 17.96875 C 2.644531 17.875 3.421875 17.59375 4 17 C 4.738281 17.753906 5.804688 18 6.5 18 C 7.195313 18 8.261719 17.753906 9 17 C 9.738281 17.753906 10.804688 18 11.5 18 C 12.195313 18 13.261719 17.753906 14 17 C 14.738281 17.753906 15.804688 18 16.5 18 C 17.195313 18 18.261719 17.753906 19 17 C 19.738281 17.753906 20.804688 18 21.5 18 C 21.648438 18 21.824219 17.992188 22 17.96875 L 22 15.96875 C 21.824219 15.992188 21.648438 16 21.5 16 C 20.804688 16 19.738281 15.753906 19 15 C 18.261719 15.753906 17.195313 16 16.5 16 C 15.804688 16 14.738281 15.753906 14 15 C 13.261719 15.753906 12.195313 16 11.5 16 C 10.804688 16 9.738281 15.753906 9 15 C 8.261719 15.753906 7.195313 16 6.5 16 C 5.804688 16 4.738281 15.753906 4 15 Z M 4 19 C 3.421875 19.59375 2.644531 19.875 2 19.96875 L 2 21.96875 C 2.644531 21.875 3.421875 21.59375 4 21 C 4.738281 21.753906 5.804688 22 6.5 22 C 7.195313 22 8.261719 21.753906 9 21 C 9.738281 21.753906 10.804688 22 11.5 22 C 12.195313 22 13.261719 21.753906 14 21 C 14.738281 21.753906 15.804688 22 16.5 22 C 17.195313 22 18.261719 21.753906 19 21 C 19.738281 21.753906 20.804688 22 21.5 22 C 21.648438 22 21.824219 21.992188 22 21.96875 L 22 19.96875 C 21.824219 19.992188 21.648438 20 21.5 20 C 20.804688 20 19.738281 19.753906 19 19 C 18.261719 19.753906 17.195313 20 16.5 20 C 15.804688 20 14.738281 19.753906 14 19 C 13.261719 19.753906 12.195313 20 11.5 20 C 10.804688 20 9.738281 19.753906 9 19 C 8.261719 19.753906 7.195313 20 6.5 20 C 5.804688 20 4.738281 19.753906 4 19 Z "/>
</svg>
