<svg xmlns="http://www.w3.org/2000/svg" width="24" height="24" viewBox="0 0 24 24">
  <path fill="none" d="M0 0h24v24H0V0z"/>
<path d="M 16 3 C 14.35 3 13 4.35 13 6 C 13 7.3 13.84 8.4003125 15 8.8203125 L 15 13 L 19 13 L 19 11 L 17 11 L 17 8.8203125 C 18.16 8.4003125 19 7.3 19 6 C 19 4.35 17.65 3 16 3 z M 16 5 C 16.55 5 17 5.45 17 6 C 17 6.55 16.55 7 16 7 C 15.45 7 15 6.55 15 6 C 15 5.45 15.45 5 16 5 z M 6 11 C 5.71 11 5.4299219 11.050859 5.1699219 11.130859 L 1 12.109375 L 1 19.310547 L 5 18 L 13.160156 20.849609 C 13.420156 20.949609 13.700703 20.990234 13.970703 20.990234 C 14.370703 20.990234 14.770625 20.899219 15.140625 20.699219 L 22.460938 16.779297 L 21.289062 14.269531 L 14.119141 17.880859 L 13.490234 17.689453 L 14.009766 16.429688 C 14.459766 15.409688 14.000469 14.219297 12.980469 13.779297 L 7.109375 11.220703 C 6.769375 11.080703 6.39 11 6 11 z"></path>
</svg>
