<svg xmlns="http://www.w3.org/2000/svg" width="24" height="24" viewBox="0 0 24 24">
  <path fill="none" d="M0 0h24v24H0V0z"/>
<path d="M21.998,16.936c-0.205-3.189-1.156-6.273-2.91-9.428C18.228,5.961,16.566,5,14.751,5H8C7.448,5,7,5.448,7,6v0 c0,0.552,0.448,1,1,1h6.751c1.09,0,2.081,0.567,2.589,1.479c0.283,0.509,0.543,1.016,0.781,1.521H12 c-9.323,0-9.992,7.85-9.997,7.929C2.003,17.929,2,19,3,19h17.999c0.553,0,1.001-0.448,1-1.001L21.998,16.936z M10,16 c-0.552,0-1-0.448-1-1c0-0.552,0.448-1,1-1s1,0.448,1,1C11,15.552,10.552,16,10,16z M13,16c-0.552,0-1-0.448-1-1 c0-0.552,0.448-1,1-1s1,0.448,1,1C14,15.552,13.552,16,13,16z M16,16c-0.552,0-1-0.448-1-1c0-0.552,0.448-1,1-1s1,0.448,1,1 C17,15.552,16.552,16,16,16z"></path>
</svg>
