<svg xmlns="http://www.w3.org/2000/svg" width="24" height="24" viewBox="0 0 24 24">
  <path fill="none" d="M0 0h24v24H0V0z"/>
<path d="M 19.564453 3 L 13.964844 8.5996094 L 13.957031 8.59375 L 13.386719 9.1640625 L 16.240234 12.017578 C 18.423234 9.8065781 20.285844 6.713 19.964844 3.5 L 19.564453 3 z M 7.8183594 3.015625 C 7.3041209 3.0157115 6.7900752 3.2098945 6.4042969 3.5976562 L 3.5761719 6.4257812 C 2.8034492 7.1986641 2.8041167 8.4818744 3.578125 9.2539062 L 3.5800781 9.2558594 L 5.46875 11.123047 C 6.6284415 12.282738 8.5348086 12.285182 9.6992188 11.132812 L 19.535156 20.970703 L 20.949219 19.556641 L 11.113281 9.7207031 L 11.125 9.7089844 C 12.288364 8.5456203 12.288364 6.630161 11.125 5.4667969 L 11.123047 5.4648438 L 9.2324219 3.5957031 C 8.8461296 3.2094109 8.3325978 3.0155385 7.8183594 3.015625 z M 7.8203125 5.0117188 L 7.8222656 5.0136719 L 9.5722656 6.7441406 C 9.7801152 6.9556697 9.7789698 7.2366552 9.5683594 7.4472656 C 9.3563594 7.6592656 9.0733281 7.6592656 8.8613281 7.4472656 L 8.8515625 7.4570312 L 7.1132812 5.71875 L 7.8203125 5.0117188 z M 5.6992188 7.1328125 L 7.4921875 8.9257812 C 7.6477934 9.128733 7.6392017 9.3764233 7.4472656 9.5683594 C 7.2359604 9.7796646 6.9520019 9.7782796 6.7402344 9.5683594 L 4.9921875 7.8378906 L 5.6992188 7.1328125 z M 9.1445312 13.40625 L 3.0566406 19.494141 L 4.4707031 20.908203 L 10.558594 14.820312 L 9.1445312 13.40625 z" font-weight="400" font-family="sans-serif" white-space="normal" overflow="visible"></path>
</svg>
