<svg xmlns="http://www.w3.org/2000/svg" width="24" height="24" viewBox="0 0 24 24">
  <path fill="none" d="M0 0h24v24H0V0z"/>
<path d="M 10 4 C 8.897 4 8 4.897 8 6 L 8 12 C 8 13.103 8.897 14 10 14 L 13 14 C 13 14.738946 13.404366 15.376387 14 15.722656 L 14 17.978516 C 14 19.078516 14.946875 20 16.046875 20 L 22 20 L 22 18 L 16 18 L 16 15.722656 C 16.595634 15.376387 17 14.738946 17 14 L 20 14 C 21.103 14 22 13.103 22 12 L 22 6 C 22 4.897 21.103 4 20 4 L 10 4 z M 2 5 L 2 13 L 6 11 L 6 7 L 2 5 z M 11 6 C 11.552 6 12 6.448 12 7 C 12 7.552 11.552 8 11 8 C 10.448 8 10 7.552 10 7 C 10 6.448 10.448 6 11 6 z"></path>
</svg>
