<svg xmlns="http://www.w3.org/2000/svg" width="24" height="24" viewBox="0 0 24 24">
  <path fill="none" d="M0 0h24v24H0V0z"/>
<path d="M 9 3 C 8.651 3 8.3012812 3.1790625 8.1132812 3.5390625 L 7.2285156 5.2402344 C 7.0775156 5.5292344 7 5.8507813 7 6.1757812 L 7 8 L 5.9082031 8 C 5.7022031 7.419 5.152 7 4.5 7 C 3.672 7 3 7.672 3 8.5 C 3 9.307 3.6395 9.9601406 4.4375 9.9941406 L 4.4375 10 L 7 10 L 7 15 L 5 15 C 4.448 15 4 15.448 4 16 C 4 16.552 4.448 17 5 17 L 7 17 L 7 18.099609 C 7 18.478609 7.1066406 18.850875 7.3066406 19.171875 L 8.1523438 20.529297 C 8.3483437 20.843297 8.675 21 9 21 C 9.325 21 9.6516563 20.843297 9.8476562 20.529297 L 10.693359 19.171875 C 10.893359 18.850875 11 18.478609 11 18.099609 L 11 6.1757812 C 11 5.8497813 10.921484 5.5301875 10.771484 5.2421875 C 10.553484 4.8241875 10.210766 4.1650625 9.8847656 3.5390625 C 9.6977656 3.1800625 9.349 3 9 3 z M 14 3 C 13.651 3 13.300281 3.1790625 13.113281 3.5390625 L 12.228516 5.2402344 C 12.077516 5.5292344 12 5.8507813 12 6.1757812 L 12 18.099609 C 12 18.478609 12.106641 18.850875 12.306641 19.171875 L 13.152344 20.529297 C 13.348344 20.843297 13.675 21 14 21 C 14.325 21 14.651656 20.843297 14.847656 20.529297 L 15.693359 19.171875 C 15.893359 18.850875 16 18.478609 16 18.099609 L 16 6.1757812 C 16 5.8497813 15.921484 5.5301875 15.771484 5.2421875 C 15.553484 4.8241875 15.210766 4.1650625 14.884766 3.5390625 C 14.697766 3.1800625 14.349 3 14 3 z M 19 3 C 18.651 3 18.300281 3.1790625 18.113281 3.5390625 L 17.228516 5.2402344 C 17.077516 5.5292344 17 5.8507813 17 6.1757812 L 17 18.099609 C 17 18.478609 17.106641 18.850875 17.306641 19.171875 L 18.152344 20.529297 C 18.348344 20.843297 18.675 21 19 21 C 19.325 21 19.651656 20.843297 19.847656 20.529297 L 20.693359 19.171875 C 20.893359 18.850875 21 18.478609 21 18.099609 L 21 6.1757812 C 21 5.8497813 20.921484 5.5301875 20.771484 5.2421875 C 20.553484 4.8241875 20.210766 4.1650625 19.884766 3.5390625 C 19.697766 3.1800625 19.349 3 19 3 z"></path>
</svg>
