<svg width="200pt" height="200pt" viewBox="0 0 200 200" version="1.1" xmlns="http://www.w3.org/2000/svg">

  <path fill="none" d="M0 0h24v24H0V0z"/>
  <path opacity="1.00" d=" M 84.73 16.72 C 91.74 8.19 105.96 7.54 113.82 15.23 C 124.34 25.10 122.21 44.35 109.92 51.88 C 114.10 53.54 118.25 55.37 121.97 57.92 C 123.28 68.45 125.34 79.32 122.65 89.80 C 120.30 92.55 117.87 95.46 117.30 99.16 C 116.40 102.72 117.63 106.31 117.52 109.88 C 115.35 120.87 113.00 131.84 110.79 142.82 C 113.48 143.32 118.39 141.34 119.23 145.02 C 119.41 153.00 119.31 160.99 119.28 168.98 C 119.46 170.72 117.84 172.12 116.19 172.12 C 105.54 173.56 94.69 173.56 84.04 172.16 C 82.31 172.20 80.52 170.85 80.70 168.99 C 80.60 161.99 80.73 155.00 80.65 148.00 C 80.77 146.28 80.22 143.99 82.08 143.01 C 84.44 142.68 86.83 142.84 89.21 142.82 C 86.99 131.85 84.65 120.90 82.46 109.92 C 82.32 106.36 83.56 102.77 82.68 99.21 C 82.13 95.46 79.64 92.55 77.31 89.76 C 74.65 79.30 76.68 68.45 78.00 57.95 C 81.70 55.35 85.87 53.54 90.06 51.89 C 78.41 44.71 75.79 27.01 84.73 16.72 Z" />
  <path fill="#000000" opacity="1.00" d=" M 0.00 58.23 C 23.32 58.23 46.64 58.23 69.96 58.23 C 68.99 66.52 68.07 74.84 68.22 83.19 C 45.48 83.22 22.74 83.20 0.00 83.20 L 0.00 58.23 Z" />
  <path fill="#000000" opacity="1.00" d=" M 130.13 58.23 C 153.42 58.23 176.71 58.23 200.00 58.23 L 200.00 83.20 C 177.29 83.20 154.58 83.22 131.87 83.19 C 132.03 74.84 131.10 66.52 130.13 58.23 Z" />
  <path fill="#000000" opacity="1.00" d=" M 34.50 145.70 C 45.59 142.70 58.11 149.27 61.99 160.06 C 65.09 167.95 63.41 177.44 57.78 183.78 C 52.32 190.17 43.25 193.17 35.06 191.25 C 28.69 189.88 23.02 185.67 19.81 180.01 C 16.12 173.65 15.74 165.51 18.79 158.83 C 21.65 152.35 27.62 147.37 34.50 145.70 Z" />
</svg>
