<svg xmlns="http://www.w3.org/2000/svg" width="24" height="24" viewBox="0 0 24 24">
  <path fill="none" d="M0 0h24v24H0V0z"/>
<path d="M 12 2 C 6.5 2 2 6.5 2 12 C 2 17.5 6.5 22 12 22 C 17.5 22 22 17.5 22 12 C 22 6.5 17.5 2 12 2 Z M 12 7.1875 C 14.398438 7.1875 14.90625 8.8125 14.90625 9.8125 C 14.90625 11.011719 13.992188 11.613281 13.59375 11.8125 C 13.992188 12.011719 15.09375 12.699219 15.09375 14 C 15.09375 16.398438 13 16.6875 12 16.6875 C 9.199219 16.6875 8.90625 14.800781 8.90625 14 C 8.90625 12.601563 9.90625 12.011719 10.40625 11.8125 C 10.007813 11.613281 9.09375 11.011719 9.09375 9.8125 C 9.09375 7.613281 11 7.1875 12 7.1875 Z M 12 8.6875 C 11 8.6875 10.90625 9.507813 10.90625 9.90625 C 10.90625 10.304688 11 11.09375 12 11.09375 C 12.898438 11.09375 13.09375 10.207031 13.09375 9.90625 C 13.09375 9.507813 13 8.6875 12 8.6875 Z M 12 12.59375 C 10.800781 12.59375 10.6875 13.707031 10.6875 13.90625 C 10.6875 15.207031 11.800781 15.1875 12 15.1875 C 12.601563 15.1875 13.3125 14.90625 13.3125 13.90625 C 13.3125 13.804688 13.199219 12.59375 12 12.59375 Z "></path>
</svg>
