<svg xmlns="http://www.w3.org/2000/svg" width="24" height="24" viewBox="0 0 24 24">
  <path fill="none" d="M0 0h24v24H0V0z"/>
<path d="M 20 3 L 4 3 C 2.894531 3 2 3.894531 2 5 L 2 19 C 2 20.105469 2.894531 21 4 21 L 20 21 C 21.105469 21 22 20.105469 22 19 L 22 5 C 22 3.894531 21.105469 3 20 3 Z M 12 7 C 13.65625 7 15 8.34375 15 10 C 15 11.65625 13.65625 13 12 13 C 10.34375 13 9 11.65625 9 10 C 9 8.34375 10.34375 7 12 7 Z M 18 19 L 6 19 L 6 17.804688 C 6 17.804688 8.039063 15 12 15 C 15.960938 15 18 17.804688 18 17.804688 Z "></path>
</svg>
