<svg xmlns="http://www.w3.org/2000/svg" width="24" height="24" viewBox="0 0 24 24">
  <path fill="none" d="M0 0h24v24H0V0z"/>
<path d="M 5 2 C 3.347656 2 2 3.347656 2 5 L 2 19 C 2 20.652344 3.347656 22 5 22 L 19 22 C 20.652344 22 22 20.652344 22 19 L 22 5 C 22 3.347656 20.652344 2 19 2 Z M 5 4 L 19 4 C 19.550781 4 20 4.449219 20 5 L 20 19 C 20 19.550781 19.550781 20 19 20 L 5 20 C 4.449219 20 4 19.550781 4 19 L 4 5 C 4 4.449219 4.449219 4 5 4 Z M 7.34375 6 C 7.273438 6.082031 6.175781 7.433594 6.03125 9.3125 C 5.957031 10.28125 6.136719 11.402344 6.84375 12.5625 C 8.261719 14.886719 6.539063 16.980469 6.46875 17.0625 L 8.0625 18.1875 C 8.171875 18.0625 10.648438 15.074219 8.5625 11.65625 C 7.144531 9.332031 8.832031 7.242188 8.90625 7.15625 Z M 11.625 6 C 11.554688 6.082031 10.457031 7.433594 10.3125 9.3125 C 10.238281 10.28125 10.414063 11.402344 11.125 12.5625 C 12.542969 14.886719 10.851563 16.980469 10.78125 17.0625 L 12.375 18.1875 C 12.484375 18.0625 14.960938 15.074219 12.875 11.65625 C 11.457031 9.332031 13.144531 7.242188 13.21875 7.15625 Z M 15.9375 6 C 15.867188 6.082031 14.769531 7.433594 14.625 9.3125 C 14.550781 10.28125 14.726563 11.402344 15.4375 12.5625 C 16.855469 14.886719 15.164063 16.980469 15.09375 17.0625 L 16.65625 18.1875 C 16.765625 18.0625 19.242188 15.074219 17.15625 11.65625 C 15.738281 9.332031 17.457031 7.246094 17.53125 7.15625 Z "></path>
</svg>
