<?xml version="1.0" encoding="UTF-8" standalone="no"?>
<svg
   xmlns:dc="http://purl.org/dc/elements/1.1/"
   xmlns:cc="http://creativecommons.org/ns#"
   xmlns:rdf="http://www.w3.org/1999/02/22-rdf-syntax-ns#"
   xmlns:svg="http://www.w3.org/2000/svg"
   xmlns="http://www.w3.org/2000/svg"
   xmlns:sodipodi="http://sodipodi.sourceforge.net/DTD/sodipodi-0.dtd"
   xmlns:inkscape="http://www.inkscape.org/namespaces/inkscape"
   width="24"
   height="24"
   viewBox="0 0 24 24"
   version="1.1"
   id="svg6"
   sodipodi:docname="feature_43.svg"
   inkscape:version="0.92.3 (2405546, 2018-03-11)">
  <metadata
     id="metadata12">
    <rdf:RDF>
      <cc:Work
         rdf:about="">
        <dc:format>image/svg+xml</dc:format>
        <dc:type
           rdf:resource="http://purl.org/dc/dcmitype/StillImage" />
      </cc:Work>
    </rdf:RDF>
  </metadata>
  <defs
     id="defs10" />
  <sodipodi:namedview
     pagecolor="#ffffff"
     bordercolor="#666666"
     borderopacity="1"
     objecttolerance="10"
     gridtolerance="10"
     guidetolerance="10"
     inkscape:pageopacity="0"
     inkscape:pageshadow="2"
     inkscape:window-width="1366"
     inkscape:window-height="705"
     id="namedview8"
     showgrid="false"
     inkscape:zoom="9.8333333"
     inkscape:cx="12"
     inkscape:cy="12"
     inkscape:window-x="-8"
     inkscape:window-y="-8"
     inkscape:window-maximized="1"
     inkscape:current-layer="svg6" />
  <path
     fill="none"
     d="M0 0h24v24H0V0z"
     id="path2" />
  <path
     d="m 10.474356,1.7118644 c -0.439844,0 -0.7968182,0.3569744 -0.7968182,0.7968178 V 3.3381819 C 5.4321562,3.6177435 3.2646799,6.0485705 2.7411767,6.7262139 a 0.79729334,0.79729334 0 0 0 1.027148,1.2107895 c 0,0 0.2302361,-0.1665661 0.563375,-0.3377138 C 4.6648388,7.4281419 5.0939344,7.289589 5.2950399,7.289589 c 0.2011056,0 0.6302013,0.1385529 0.9633403,0.3097006 0.3331391,0.1711477 0.5633751,0.3377138 0.5633751,0.3377138 a 0.79689748,0.79689748 0 0 0 0.813937,0.070033 c 0,0 0.9943265,-0.4497185 2.0418455,-0.6349642 v 4.4136228 l 0.7968182,0.524468 0.796817,-0.524468 V 7.372072 c 1.047519,0.1852458 2.041846,0.6349642 2.041846,0.6349642 a 0.79689748,0.79689748 0 0 0 0.803043,-0.062251 c 0,0 0.24539,-0.1692066 0.58672,-0.3423827 0.341329,-0.173176 0.780418,-0.3128131 0.950889,-0.3128131 0.170471,0 0.60956,0.1396371 0.95089,0.3128131 0.341331,0.1731761 0.586719,0.3423827 0.58672,0.3423827 A 0.79736601,0.79736601 0 0 0 18.207535,6.7262139 C 17.684031,6.0485705 15.516555,3.6177435 11.271173,3.3381819 V 2.5086822 c 0,-0.4398434 -0.356973,-0.7968178 -0.796817,-0.7968178 z m 8.764995,8.7649966 a 1.5936356,1.5936356 0 0 0 -1.593635,1.593635 1.5936356,1.5936356 0 0 0 1.593635,1.593635 1.5936356,1.5936356 0 0 0 1.593635,-1.593635 1.5936356,1.5936356 0 0 0 -1.593635,-1.593635 z M 6.470035,11.273678 A 0.79689748,0.79689748 0 0 0 5.85219,11.592717 l -2.3904535,3.18727 a 0.79712911,0.79712911 0 0 0 -0.158741,0.477781 H 2.5061777 a 0.79689748,0.79689748 0 1 0 0,1.593635 h 7.9681783 0.20076 c 0.741704,0 1.476829,-0.147304 2.16168,-0.435759 l 3.107901,-1.30728 a 0.79689748,0.79689748 0 0 0 0.231886,-0.144735 1.5936356,1.5936356 0 0 0 0.672315,-1.299498 1.5936356,1.5936356 0 0 0 -1.593636,-1.593635 1.5936356,1.5936356 0 0 0 -0.613176,0.122947 l -0.0031,-0.0047 -4.164622,1.47539 -3.4658468,-2.200587 -0.020231,-0.01557 A 0.79689748,0.79689748 0 0 0 6.470035,11.273678 Z m 0.1649661,1.934462 2.1912493,2.049628 h -3.730415 z m 14.9745719,1.249696 a 0.79689748,0.79689748 0 0 0 -0.286357,0.06382 l -9.415522,3.923393 H 2.5061777 a 0.79689748,0.79689748 0 1 0 0,1.593636 h 1.5936356 v 1.593635 a 0.79689748,0.79689748 0 1 0 1.5936356,0 V 20.038685 H 12.03064 12.11 18.442522 v 1.593635 a 0.79689748,0.79689748 0 1 0 1.593636,0 v -1.593635 h 1.593635 a 0.79689748,0.79689748 0 1 0 0,-1.593636 H 16.05363 l 5.882757,-2.45115 A 0.79689748,0.79689748 0 0 0 21.60957,14.457841 Z"
     id="path4"
     inkscape:connector-curvature="0"
     style="stroke-width:0.79681778" />
</svg>
