<svg xmlns="http://www.w3.org/2000/svg" width="24" height="24" viewBox="0 0 24 24">
  <path fill="none" d="M0 0h24v24H0V0z"/>
<path d="M 12.5 4 C 11.671875 4 11 4.671875 11 5.5 C 11 6.328125 11.671875 7 12.5 7 C 13.328125 7 14 6.328125 14 5.5 C 14 4.671875 13.328125 4 12.5 4 Z M 8.28125 7.1875 C 7.980469 7.207031 7.683594 7.300781 7.40625 7.4375 L 4.9375 8.65625 L 5.625 10.03125 L 8.09375 8.78125 C 8.277344 8.691406 8.503906 8.6875 8.6875 8.75 L 9.375 9 L 7.78125 11.8125 C 7.363281 12.488281 7.515625 13.375 8.15625 13.84375 L 10.625 15.625 L 10.75 15.75 L 9.21875 19.65625 L 10.90625 19.5625 L 12.3125 15.875 C 12.429688 15.566406 12.359375 15.234375 12.125 15 L 10.09375 12.96875 L 11.46875 10.5 L 12.40625 12.53125 L 16 12.53125 L 16 11.0625 C 16 11.0625 14.164063 11.03125 13.28125 11.03125 L 12.28125 8.625 L 10.15625 7.65625 L 9.1875 7.3125 C 8.894531 7.210938 8.582031 7.167969 8.28125 7.1875 Z M 20.8125 9 L 16.8125 12 L 18 13.59375 L 18.96875 12.875 L 17.71875 19.15625 L 19.78125 19.03125 L 21.375 11.09375 L 22 10.59375 Z M 7.25 13.90625 L 7.03125 14.1875 C 6.886719 14.378906 6.675781 14.46875 6.4375 14.46875 L 3 14.46875 L 3 16 L 6.4375 16 C 7.15625 16 7.8125 15.667969 8.25 15.09375 L 8.4375 14.8125 Z M 20.5 20 L 3 21 C 2.449219 21 2 21.449219 2 22 C 2 22.550781 2.449219 23 3 23 L 20.5 23 C 21.328125 23 22 22.328125 22 21.5 C 22 20.671875 21.328125 20 20.5 20 Z "></path>
</svg>
