<svg xmlns="http://www.w3.org/2000/svg" width="24" height="24" viewBox="0 0 24 24">
  <path fill="none" d="M0 0h24v24H0V0z"/>
<path d="M 5 3 C 3.9069372 3 3 3.9069372 3 5 L 3 19 C 3 20.093063 3.9069372 21 5 21 L 19 21 C 20.093063 21 21 20.093063 21 19 L 21 5 C 21 3.9069372 20.093063 3 19 3 L 5 3 z M 11 5 C 11.552 5 12 5.448 12 6 C 12 6.552 11.552 7 11 7 C 10.448 7 10 6.552 10 6 C 10 5.448 10.448 5 11 5 z M 14 5 C 14.552 5 15 5.448 15 6 C 15 6.552 14.552 7 14 7 C 13.448 7 13 6.552 13 6 C 13 5.448 13.448 5 14 5 z M 17 5 C 17.552 5 18 5.448 18 6 C 18 6.552 17.552 7 17 7 C 16.448 7 16 6.552 16 6 C 16 5.448 16.448 5 17 5 z M 5 9 L 19 9 L 19 19 L 5 19 L 5 9 z M 6.5 11 C 6.224 11 6 11.224 6 11.5 L 6 12.5 C 6 13.452 6.798 14.681281 8 14.738281 L 8 16 L 7.5 16 C 7.225 16 7 16.225 7 16.5 C 7 16.775 7.225 17 7.5 17 L 8 17 L 9 17 L 9.5 17 C 9.775 17 10 16.775 10 16.5 C 10 16.225 9.775 16 9.5 16 L 9 16 L 9 14.738281 C 10.202 14.681281 11 13.452 11 12.5 L 11 11.5 C 11 11.224 10.776 11 10.5 11 L 6.5 11 z M 13.275391 11.009766 C 13.120844 11.046891 13 11.184469 13 11.355469 L 13 16.644531 C 13 16.872531 13.2145 17.040234 13.4375 16.990234 C 14.3285 16.789234 15 15.989062 15 15.039062 L 15 12.960938 C 15 12.011937 14.3285 11.210766 13.4375 11.009766 C 13.38175 10.997266 13.326906 10.997391 13.275391 11.009766 z M 16.275391 11.009766 C 16.120844 11.046891 16 11.184469 16 11.355469 L 16 16.644531 C 16 16.872531 16.2145 17.040234 16.4375 16.990234 C 17.3285 16.789234 18 15.989062 18 15.039062 L 18 12.960938 C 18 12.011937 17.3285 11.210766 16.4375 11.009766 C 16.38175 10.997266 16.326906 10.997391 16.275391 11.009766 z" font-weight="400" font-family="sans-serif" white-space="normal" overflow="visible"></path></svg>
