<svg xmlns="http://www.w3.org/2000/svg" width="24" height="24" viewBox="0 0 24 24">
  <path fill="none" d="M0 0h24v24H0V0z"/>
<path d="M 7.5 2 C 4.464844 2 2 4.464844 2 7.5 L 2 8 L 4 8 L 4 7.5 C 4 5.535156 5.535156 4 7.5 4 C 9.105469 4 10.414063 5.023438 10.84375 6.46875 C 10.703125 6.394531 10.554688 6.335938 10.40625 6.28125 C 10.300781 6.238281 10.203125 6.1875 10.09375 6.15625 C 10.050781 6.144531 10.011719 6.136719 9.96875 6.125 C 9.660156 6.042969 9.332031 6 9 6 C 7.667969 6 6.457031 6.664063 5.6875 7.6875 L 7.3125 8.90625 C 7.746094 8.332031 8.332031 8 9 8 C 10.191406 8 11 8.808594 11 10 L 11 11 L 13 11 L 13 10 C 13 8.808594 13.808594 8 15 8 C 15.5 8 15.964844 8.195313 16.34375 8.53125 C 16.46875 8.644531 16.578125 8.761719 16.6875 8.90625 L 18.3125 7.6875 C 17.542969 6.664063 16.332031 6 15 6 C 14.746094 6 14.492188 6.015625 14.25 6.0625 C 14.175781 6.078125 14.105469 6.105469 14.03125 6.125 C 13.964844 6.140625 13.90625 6.167969 13.84375 6.1875 C 13.648438 6.246094 13.460938 6.320313 13.28125 6.40625 C 13.238281 6.425781 13.195313 6.449219 13.15625 6.46875 C 13.585938 5.023438 14.894531 4 16.5 4 C 18.464844 4 20 5.535156 20 7.5 L 20 8 L 22 8 L 22 7.5 C 22 4.464844 19.535156 2 16.5 2 C 14.636719 2 13.019531 2.953125 12.03125 4.375 C 11.039063 2.941406 9.371094 2 7.5 2 Z M 6 12 L 6 14 L 7.25 14 C 7.886719 15.445313 9.742188 17 12 17 C 14.257813 17 16.113281 15.445313 16.75 14 L 18 14 L 18 12 Z M 10 18 L 10 19 L 2 19 L 2.5 20.59375 C 2.800781 21.394531 3.507813 22 4.40625 22 L 19.59375 22 C 20.492188 22 21.199219 21.394531 21.5 20.59375 L 22 19 L 14 19 L 14 18 Z ">
</path>
</svg>
