<svg xmlns="http://www.w3.org/2000/svg" width="24" height="24" viewBox="0 0 24 24">
  <path fill="none" d="M0 0h24v24H0V0z"/>
<path  d="M 12,2 C 11.261719,2 10.628906,2.402344 10.28125,3 H 5 v 2 h 5.28125 C 10.457031,5.300781 10.699219,5.542969 11,5.71875 v 0.375 C 8.722656,6.558594 7,8.585938 7,11 V 22 H 17 V 11 C 17,8.585938 15.277344,6.558594 13,6.09375 v -0.375 C 13.300781,5.542969 13.542969,5.300781 13.71875,5 H 19 V 3 H 13.71875 C 13.371094,2.402344 12.738281,2 12,2 Z m 0,6 c 0.335938,0 0.636719,0.085938 0.9375,0.1875 C 11.8125,8.605469 11,9.667969 11,10.9375 V 18 h 4 v 2 H 9 V 11 C 9,9.347656 10.347656,8 12,8 Z"/>
</svg>
